<svg width="656" height="650" viewBox="0 0 656 650" fill="none" xmlns="http://www.w3.org/2000/svg">
<path d="M565.667 309.713C565.667 167.408 450.231 52.0464 307.834 52.0464C165.436 52.0464 50 167.408 50 309.713C50 452.018 165.436 567.379 307.834 567.379C450.231 567.379 565.667 452.018 565.667 309.713Z" fill="#7B4AE2" fill-opacity="0.2"/>
<g filter="url(#filter0_d_21_4106)">
<circle cx="570.143" cy="331.11" r="35.8102" fill="#090E16"/>
</g>
<path d="M580.606 343.318C580.591 343.34 580.566 343.343 580.543 343.35C580.452 343.463 580.313 343.493 580.189 343.546C578.866 344.123 577.546 344.709 576.226 345.293C576.115 345.341 576.017 345.326 575.91 345.291C575.227 345.062 574.55 344.819 573.871 344.581C573.042 344.289 572.215 343.999 571.386 343.709C569.724 343.128 568.062 342.546 566.401 341.961C565.404 341.61 564.403 341.264 563.406 340.914C561.925 340.394 560.44 339.882 558.961 339.355C558.726 339.271 558.476 339.223 558.263 339.084C558.252 339.075 558.241 339.063 558.229 339.054C558.181 338.986 558.163 338.906 558.147 338.827C558.062 338.427 558.015 338.026 558.01 337.617C557.939 332.172 558.002 326.729 557.98 321.284C557.98 321.196 557.994 321.112 558.009 321.027C558.009 321.009 558.019 320.999 558.033 320.993C558.046 320.982 558.061 320.98 558.075 320.986C558.16 321.03 558.216 321.106 558.281 321.17C565.639 328.479 572.997 335.787 580.355 343.094C580.424 343.163 580.488 343.239 580.577 343.285C580.59 343.295 580.6 343.306 580.608 343.319L580.606 343.318ZM580.613 343.171C580.577 343.176 580.549 343.163 580.525 343.139C580.491 343.103 580.455 343.07 580.421 343.036C573.034 335.698 565.649 328.363 558.262 321.025C558.208 320.972 558.147 320.924 558.106 320.858C558.16 320.814 558.223 320.803 558.289 320.801C558.349 320.8 558.409 320.8 558.469 320.8C563.832 320.8 569.194 320.798 574.557 320.801C575.037 320.801 575.515 320.833 575.987 320.937C576.083 320.957 576.18 320.977 576.257 321.044C576.268 321.053 576.279 321.062 576.292 321.07C576.432 321.294 576.488 321.552 576.576 321.795C577.278 323.78 577.989 325.761 578.688 327.746C579.138 329.025 579.596 330.302 580.05 331.579C580.786 333.649 581.524 335.719 582.255 337.791C582.349 338.057 582.435 338.326 582.542 338.587C582.594 338.715 582.578 338.833 582.521 338.962C582.027 340.054 581.542 341.151 581.054 342.246C580.939 342.504 580.825 342.764 580.707 343.02C580.682 343.073 580.66 343.131 580.613 343.171ZM557.691 339.286C557.803 339.289 557.897 339.347 557.997 339.382C558.474 339.548 558.953 339.713 559.429 339.879C560.404 340.22 561.379 340.563 562.355 340.905C563.218 341.206 564.082 341.504 564.945 341.805C565.519 342.005 566.092 342.209 566.664 342.409C567.676 342.764 568.69 343.116 569.703 343.471C570.255 343.664 570.806 343.859 571.357 344.052C572.385 344.413 573.415 344.771 574.445 345.131C575.013 345.33 575.58 345.529 576.148 345.734C576.252 345.771 576.338 345.765 576.44 345.718C576.894 345.512 577.354 345.317 577.812 345.115C578.156 344.966 578.496 344.811 578.84 344.66C579.396 344.415 579.952 344.173 580.509 343.93C580.655 343.865 580.801 343.803 580.945 343.74C580.671 344.584 580.397 345.428 580.123 346.272C579.957 346.783 579.794 347.295 579.63 347.806C579.519 348.15 579.408 348.495 579.299 348.84C579.25 348.994 579.25 348.998 579.086 348.998C578.352 348.998 577.617 348.996 576.883 348.996C574.808 348.994 572.736 349.01 570.663 348.988C569.069 348.97 567.475 348.983 565.881 348.973C565.782 348.973 565.709 348.946 565.641 348.875C565.532 348.759 565.415 348.651 565.302 348.538C563.622 346.879 561.941 345.22 560.261 343.561C560.072 343.374 559.884 343.184 559.692 342.999C559.23 342.553 558.88 342.024 558.572 341.468C558.199 340.792 557.902 340.083 557.699 339.337C557.694 339.321 557.694 339.303 557.693 339.287L557.691 339.286ZM580.974 343.698C580.997 343.525 581.101 343.385 581.166 343.231C581.326 342.846 581.501 342.466 581.672 342.084C581.819 341.754 581.968 341.425 582.116 341.095C582.32 340.636 582.523 340.177 582.727 339.717C582.797 339.563 582.865 339.408 582.941 339.257C582.988 339.165 583.001 339.083 582.964 338.981C582.726 338.324 582.489 337.665 582.255 337.005C582.134 336.665 582.019 336.322 581.899 335.982C581.612 335.167 581.324 334.353 581.036 333.54C580.841 332.992 580.645 332.444 580.45 331.897C580.167 331.099 579.884 330.3 579.602 329.503C579.409 328.96 579.215 328.419 579.022 327.876C578.723 327.035 578.428 326.194 578.13 325.353C577.935 324.806 577.739 324.258 577.544 323.71C577.26 322.913 576.981 322.114 576.694 321.318C576.612 321.09 576.521 320.866 576.466 320.629C576.813 320.698 577.144 320.819 577.473 320.946C578.298 321.268 579.075 321.679 579.771 322.23C580.087 322.481 580.363 322.778 580.648 323.061C581.063 323.472 581.474 323.889 581.889 324.302C583.22 325.627 584.55 326.955 585.883 328.279C585.966 328.361 586.002 328.443 586 328.559C585.997 331.5 585.997 334.444 585.995 337.385C585.995 338.901 585.992 340.418 585.99 341.934C585.99 341.952 585.99 341.968 585.99 341.986C585.989 342.122 586.016 342.122 585.854 342.174C585.595 342.256 585.333 342.338 585.074 342.42C583.757 342.838 582.44 343.256 581.125 343.674C581.088 343.685 581.049 343.693 581.01 343.703C580.997 343.699 580.986 343.698 580.973 343.695L580.974 343.698ZM576.531 320.703C576.33 320.666 576.13 320.627 575.929 320.592C575.755 320.561 575.582 320.542 575.405 320.532C574.255 320.469 573.106 320.503 571.956 320.502C567.233 320.498 562.512 320.5 557.79 320.502C557.722 320.502 557.654 320.505 557.586 320.508C557.574 320.506 557.563 320.505 557.551 320.502C557.848 320.283 558.163 320.089 558.471 319.886C559.267 319.36 560.067 318.838 560.865 318.312C562.527 317.22 564.188 316.125 565.85 315.033C566.7 314.474 567.553 313.92 568.401 313.357C568.552 313.258 568.688 313.137 568.866 313.079C569.233 312.956 569.596 312.989 569.958 313.093C570.46 313.237 570.895 313.499 571.281 313.846C571.424 313.974 571.558 314.115 571.696 314.25C572.958 315.493 574.22 316.739 575.483 317.981C575.579 318.074 575.645 318.176 575.689 318.303C575.96 319.082 576.24 319.86 576.516 320.639C576.524 320.659 576.527 320.682 576.532 320.705L576.531 320.703ZM557.526 320.539C557.573 320.606 557.55 320.682 557.55 320.753C557.551 326.251 557.551 331.749 557.551 337.246C557.551 337.591 557.582 337.934 557.594 338.277C557.603 338.585 557.668 338.891 557.741 339.191C557.754 339.242 557.785 339.295 557.756 339.352C557.347 339.212 556.938 339.073 556.53 338.931C556.116 338.788 555.704 338.641 555.289 338.5C555.195 338.467 555.119 338.417 555.049 338.347C553.682 336.974 552.312 335.607 550.946 334.234C550.497 333.783 550.179 333.253 550.044 332.625C549.986 332.349 549.98 332.076 550.059 331.802C550.093 331.681 550.143 331.567 550.216 331.465C550.708 330.784 551.157 330.075 551.622 329.379C553.427 326.678 555.226 323.973 557.028 321.27C557.191 321.025 557.357 320.782 557.522 320.537L557.526 320.539Z" fill="#7B4AE2" fill-opacity="0.5"/>
<g filter="url(#filter1_d_21_4106)">
<circle cx="85.8102" cy="239.794" r="35.8102" fill="#090E16"/>
</g>
<path d="M88.6103 219L67.7209 239.889L74.1866 246.355L101.542 219H88.6103Z" fill="#7B4AE2" fill-opacity="0.5"/>
<path d="M88.4647 238.264L77.28 249.449L83.7699 256.036L90.2237 249.582L101.542 238.264H88.4647Z" fill="#7B4AE2" fill-opacity="0.5"/>
<path d="M83.77 256.036L88.683 260.949H101.542L90.2236 249.582L83.77 256.036Z" fill="#7B4AE2" fill-opacity="0.5"/>
<path d="M77.2072 249.521L83.673 243.056L90.2236 249.582L83.77 256.036L77.2072 249.521Z" fill="#7B4AE2" fill-opacity="0.5"/>
<path d="M83.77 256.036L89.1439 254.252L89.6777 250.128L83.77 256.036Z" fill="url(#paint0_linear_21_4106)" fill-opacity="0.8"/>
<g filter="url(#filter2_d_21_4106)">
<circle cx="85.8102" cy="468.98" r="35.8102" fill="#090E16"/>
</g>
<g clip-path="url(#clip0_21_4106)">
<path fill-rule="evenodd" clip-rule="evenodd" d="M79.8885 451.074C76.5939 451.074 73.9201 453.748 73.9201 457.043C73.9201 460.337 76.5939 463.011 79.8885 463.011C76.5939 463.011 73.9201 465.685 73.9201 468.98C73.9201 472.274 76.5939 474.948 79.8885 474.948C76.5939 474.948 73.9201 477.622 73.9201 480.916C73.9201 484.211 76.5939 486.885 79.8885 486.885C83.183 486.885 85.8568 484.211 85.8568 480.916L85.8568 468.98C85.8568 472.274 88.5307 474.948 91.8252 474.948C95.1198 474.948 97.7936 472.274 97.7936 468.98C97.7936 465.685 95.1198 463.011 91.8252 463.011C95.1198 463.011 97.7936 460.337 97.7936 457.043C97.7936 453.748 95.1198 451.074 91.8252 451.074H79.8885ZM91.8252 463.011H85.8568L85.8568 468.98C85.8568 465.685 88.5307 463.011 91.8252 463.011Z" fill="#7B4AE2" fill-opacity="0.5"/>
</g>
<g filter="url(#filter3_f_21_4106)">
<circle cx="309.624" cy="305.148" r="255.148" fill="#7B4AE2" fill-opacity="0.2"/>
</g>
<g filter="url(#filter4_i_21_4106)">
<path fill-rule="evenodd" clip-rule="evenodd" d="M262.636 404.465C299.391 424.056 340.608 421.88 372.901 404.463V447.383L373.266 447.373V472.573H262.636V404.465Z" fill="#BB7D52"/>
<path fill-rule="evenodd" clip-rule="evenodd" d="M262.635 440.226C299.39 459.819 340.607 457.642 372.901 440.226V467.595L397.734 466.977L398.042 466.988C398.042 532.959 240.326 542.834 240.326 466.889L240.942 466.861L262.635 466.972V440.226Z" fill="#D08B5B"/>
<path fill-rule="evenodd" clip-rule="evenodd" d="M198.067 169.098C285.781 113.249 397.996 133.109 435.909 169.937C446.87 196.314 447.645 221.755 444.42 249.065C451.825 243.751 460.631 244.967 467.569 249.916C470.38 272.577 477.909 317.405 444.169 319.35C432.553 463.956 219.72 481.955 190.95 319.823C157.51 318.669 166.527 273.364 168.616 251.608C176.639 245.504 185.801 248.576 191.487 251.307L198.067 169.098Z" fill="#D08B5B"/>
<path fill-rule="evenodd" clip-rule="evenodd" d="M185.039 230.339C185.499 231.604 184.002 232.87 179.511 235.172C170.215 239.815 169.4 240.78 169.377 248.053V248.405C169.377 258.185 170.874 260.715 177.322 261.637C183.887 262.558 188.034 264.053 189.186 265.894C189.645 266.7 190.107 270.382 190.107 274.179C190.107 282.349 192.64 293.856 195.75 299.839C204.502 316.87 227.304 325.5 254.943 322.278C268.533 320.551 276.479 317.905 285.116 312.151C298.015 303.522 304.003 292.475 304.924 275.1C305.616 264.513 305.616 264.513 309.071 263.362C313.562 261.752 324.733 261.752 329.34 263.362C332.909 264.628 332.909 264.628 332.909 272.799C332.909 282.234 335.328 293.511 338.552 299.84C347.305 316.87 370.107 325.5 397.631 322.278C411.336 320.552 419.282 317.905 427.92 312.153C440.818 303.523 446.807 292.131 447.958 274.295C448.764 262.558 448.189 263.133 460.857 261.522C467.305 260.717 468.803 258.185 468.803 248.289C468.803 240.464 467.536 238.97 456.826 234.367L450.376 231.604L440.357 228.499L432.987 226.888C428.956 226.082 423.774 225.391 421.585 225.276C419.282 225.276 413.525 223.204 407.767 220.329C398.207 215.61 397.747 215.495 386.461 215.495C373.563 215.495 364.464 218.142 357.093 223.896C354.906 225.621 350.299 227.807 347.074 228.613C343.734 229.419 337.516 231.605 333.255 233.446C322.084 238.164 316.326 237.934 302.046 232.18C295.827 229.65 289.953 227.577 289.148 227.577C288.34 227.577 285.692 225.967 283.274 224.011C275.673 218.027 267.151 215.495 254.022 215.495C242.851 215.495 242.161 215.726 232.257 220.444C225.577 223.666 220.394 225.276 217.285 225.276C214.75 225.391 209.223 226.082 205.077 227.003L185.039 230.339ZM277.17 245.183C290.988 249.67 295.249 255.768 295.365 271.187C295.48 279.358 295.02 282.005 292.832 286.491C285.232 302.026 263.58 310.772 237.898 308.815C218.206 307.204 208.071 301.681 202.659 289.484C199.204 281.544 198.743 262.558 201.967 256.689C204.962 251.165 210.721 247.369 220.163 244.837C227.534 242.881 231.565 242.651 249.991 242.881C265.883 243.226 272.794 243.802 277.17 245.183ZM419.972 245.183C433.793 249.67 438.053 255.768 438.169 271.187C438.284 279.358 437.823 282.005 435.635 286.491C428.034 302.026 406.383 310.772 380.701 308.815C361.009 307.204 350.874 301.681 345.461 289.484C342.006 281.544 341.546 262.558 344.77 256.689C347.765 251.165 353.523 247.369 362.966 244.837C370.337 242.881 374.367 242.651 392.793 242.881C408.686 243.226 415.596 243.802 419.972 245.183Z" fill="#A66F49"/>
<path fill-rule="evenodd" clip-rule="evenodd" d="M288.225 56.6225L280.97 61.3407L277.284 57.7733C271.526 52.1353 268.762 53.1709 264.386 62.4914C261.737 68.2445 258.398 68.9354 252.64 65.1377C250.336 63.527 247.457 62.146 246.306 62.146C243.772 62.146 241.353 66.0582 240.317 71.2362C239.511 75.4938 236.747 79.406 234.444 79.406C233.638 79.406 230.643 78.3704 227.765 77.1045C223.388 75.1484 222.006 75.0333 219.588 76.0689C216.824 77.3348 216.593 78.025 216.593 85.6197C216.593 91.1432 215.787 95.4008 214.29 98.6227C212.102 103.455 211.987 103.571 206.574 103.571C197.591 103.571 193.33 108.058 197.706 113.006C200.01 115.422 198.512 117.954 194.022 118.99C185.729 121.061 183.311 126.354 187.802 131.992C190.912 136.019 190.797 136.595 185.844 138.897C180.662 141.428 179.857 144.305 183.196 147.872C185.729 150.634 185.729 150.748 184.347 165.938C182.966 180.666 183.426 221.746 185.039 226.003C185.499 227.269 184.002 228.535 179.511 230.836C170.067 235.554 169.377 236.474 169.377 244.069C169.377 253.85 170.874 256.381 177.323 257.302C183.887 258.222 188.033 259.718 189.185 261.559C189.645 262.365 190.106 266.047 190.106 269.844C190.106 278.014 192.64 289.521 195.749 295.504C204.502 312.535 227.304 321.164 254.944 317.943C268.533 316.217 276.479 313.57 285.116 307.817C298.015 299.187 304.003 288.14 304.925 270.765C305.616 260.178 305.616 260.178 309.071 259.028C313.562 257.417 324.733 257.417 329.339 259.028C332.91 260.294 332.91 260.294 332.91 268.464C332.91 277.9 335.328 289.176 338.553 295.505C347.305 312.535 370.107 321.165 397.631 317.944C411.336 316.217 419.282 313.571 427.92 307.818C440.818 299.188 446.807 287.796 447.958 269.96C448.764 258.223 448.189 258.799 460.857 257.187C467.306 256.382 468.803 253.85 468.803 243.955C468.803 236.13 467.536 234.634 456.826 230.032L450.377 227.27V215.763C450.261 196.086 447.498 182.163 442.66 177.675C441.048 176.18 437.478 173.878 434.599 172.497C430.108 170.311 429.187 170.196 427.805 171.692C426.423 173.073 426.768 174.339 430.223 181.243C434.484 189.758 438.284 204.141 439.551 216.569L440.357 224.164L432.987 222.552C428.956 221.747 423.774 221.057 421.585 220.942C419.282 220.942 413.524 218.87 407.766 215.994C398.207 211.276 397.747 211.16 386.461 211.16C373.562 211.16 364.464 213.807 357.094 219.56C354.906 221.287 350.299 223.473 347.075 224.279C343.735 225.084 337.516 227.27 333.255 229.111C322.084 233.829 316.326 233.599 302.045 227.845C295.827 225.314 289.953 223.243 289.147 223.243C288.341 223.243 285.692 221.632 283.274 219.676C275.673 213.692 267.151 211.16 254.022 211.16C242.851 211.16 242.16 211.391 232.256 216.108C225.576 219.33 220.394 220.942 217.285 220.942C214.751 221.057 209.223 221.747 205.078 222.667C193.331 225.199 194.252 226.695 195.173 207.363C195.864 190.794 198.052 176.756 200.586 171.922C203.465 166.514 226.267 154.892 248.84 147.298C276.825 137.977 308.264 134.41 343.735 136.827C374.138 138.783 382.2 141.314 415.828 159.38C427.574 165.709 438.515 170.772 441.048 171.117C445.195 171.692 445.54 171.462 446.806 168.009C449.571 160.07 447.382 140.048 442.776 130.958C439.321 124.284 439.091 121.752 441.048 114.848C442.43 110.015 442.43 108.98 440.703 106.448C439.091 104.032 437.939 103.572 433.333 103.572C430.338 103.687 425.732 104.147 423.083 104.607C418.361 105.528 418.246 105.528 418.822 102.536C421.125 91.2596 418.361 88.7278 407.19 91.6044C403.62 92.5249 400.28 93.1006 400.05 92.7551C399.705 92.4104 400.05 88.9581 400.856 85.1611C402.237 78.9474 402.123 77.9118 400.511 76.1853C398.783 74.5747 397.747 74.5747 391.067 75.8406C380.357 78.0269 376.326 76.9913 372.41 71.0073C368.38 65.139 364.694 63.0678 360.894 64.5633C358.821 65.3686 356.633 65.0239 352.487 63.1829C348.11 61.342 345.577 60.8814 341.662 61.4565C337.631 62.1473 335.443 61.6867 331.642 59.7307C327.727 57.7746 325.539 57.4292 320.817 58.0042C315.75 58.5799 313.907 58.1193 308.034 55.2428C304.349 53.4018 299.973 51.9057 298.36 51.7905C296.748 51.7905 292.256 53.9769 288.226 56.6238L288.225 56.6225ZM277.169 240.847C290.989 245.335 295.25 251.434 295.365 266.853C295.481 275.022 295.02 277.669 292.832 282.157C285.231 297.691 263.58 306.436 237.898 304.48C218.206 302.869 208.071 297.346 202.659 285.148C199.204 277.209 198.743 258.222 201.967 252.354C204.962 246.831 210.72 243.034 220.163 240.502C227.534 238.546 231.565 238.315 249.991 238.546C265.883 238.891 272.793 239.466 277.169 240.847ZM419.972 240.847C433.792 245.335 438.053 251.434 438.168 266.853C438.284 275.022 437.823 277.669 435.635 282.157C428.034 297.691 406.383 306.436 380.701 304.48C361.009 302.869 350.874 297.346 345.462 285.148C342.007 277.209 341.546 258.222 344.77 252.354C347.765 246.831 353.523 243.034 362.966 240.502C370.337 238.546 374.368 238.315 392.794 238.546C408.686 238.891 415.596 239.466 419.972 240.847Z" fill="#2C1B18"/>
<path fill-rule="evenodd" clip-rule="evenodd" d="M240.087 254.771C233.983 257.647 226.957 264.897 226.957 268.349C226.957 270.995 228.8 270.995 232.37 268.119C241.698 260.754 261.507 260.754 271.641 268.003C273.599 269.269 275.672 270.419 276.363 270.419C278.781 270.419 277.63 266.277 273.945 261.904C269.108 255.921 260.471 252.009 252.293 252.009C248.032 252.009 244.002 252.929 240.087 254.77V254.771Z" fill="#533824"/>
<path fill-rule="evenodd" clip-rule="evenodd" d="M373.677 254.771C367.573 257.647 360.548 264.897 360.548 268.349C360.548 270.995 362.391 270.995 365.961 268.119C375.289 260.754 395.097 260.754 405.232 268.003C407.189 269.269 409.262 270.419 409.954 270.419C412.372 270.419 411.22 266.277 407.535 261.904C402.698 255.921 394.061 252.009 385.884 252.009C381.623 252.009 377.593 252.929 373.677 254.77L373.677 254.771Z" fill="#533824"/>
<path fill-rule="evenodd" clip-rule="evenodd" d="M292.256 309.773C293.523 314.721 297.208 318.634 303.657 321.741C308.84 324.272 311.488 324.848 319.089 324.848C326.69 324.848 329.339 324.272 334.521 321.741C340.97 318.634 344.655 314.722 345.922 309.773L346.498 307.242H319.089H291.68L292.256 309.773Z" fill="#AF754C"/>
<path fill-rule="evenodd" clip-rule="evenodd" d="M185.039 226.003C185.499 227.269 184.002 228.535 179.511 230.836C170.215 235.479 169.4 236.446 169.377 243.718V244.07C169.377 253.85 170.874 256.381 177.322 257.302C183.887 258.222 188.034 259.718 189.186 261.559C189.645 262.365 190.107 266.047 190.107 269.844C190.107 278.014 192.64 289.522 195.75 295.504C204.502 312.535 227.304 321.164 254.943 317.943C268.533 316.216 276.479 313.57 285.116 307.817C298.015 299.187 304.003 288.141 304.924 270.765C305.616 260.178 305.616 260.178 309.071 259.028C313.562 257.418 324.733 257.418 329.34 259.028C332.909 260.293 332.909 260.293 332.909 268.464C332.909 277.899 335.328 289.176 338.552 295.506C347.305 312.535 370.107 321.164 397.631 317.943C411.336 316.217 419.282 313.57 427.92 307.818C440.818 299.188 446.807 287.796 447.958 269.96C448.764 258.222 448.189 258.799 460.857 257.187C467.305 256.382 468.803 253.85 468.803 243.954C468.803 236.13 467.536 234.635 456.826 230.032L450.376 227.269L440.357 224.164L432.987 222.552C428.956 221.747 423.774 221.056 421.585 220.941C419.282 220.941 413.525 218.87 407.767 215.994C398.207 211.276 397.747 211.16 386.461 211.16C373.563 211.16 364.464 213.807 357.093 219.561C354.906 221.286 350.299 223.473 347.074 224.278C343.734 225.084 337.516 227.27 333.255 229.111C322.084 233.829 316.326 233.599 302.046 227.845C295.827 225.315 289.953 223.242 289.148 223.242C288.34 223.242 285.692 221.632 283.274 219.676C275.673 213.692 267.151 211.16 254.022 211.16C242.851 211.16 242.161 211.391 232.257 216.109C225.577 219.331 220.394 220.941 217.285 220.941C214.75 221.056 209.223 221.747 205.077 222.667L185.039 226.003ZM277.17 240.848C290.988 245.336 295.249 251.434 295.365 266.853C295.48 275.023 295.02 277.67 292.832 282.156C285.232 297.691 263.58 306.437 237.898 304.479C218.206 302.869 208.071 297.346 202.659 285.149C199.204 277.209 198.743 258.222 201.967 252.354C204.962 246.83 210.721 243.034 220.163 240.502C227.534 238.546 231.565 238.316 249.991 238.546C265.883 238.89 272.794 239.467 277.17 240.848ZM419.972 240.848C433.793 245.336 438.053 251.434 438.169 266.853C438.284 275.023 437.823 277.67 435.635 282.156C428.034 297.691 406.383 306.437 380.701 304.479C361.009 302.869 350.874 297.346 345.461 285.149C342.006 277.209 341.546 258.222 344.77 252.354C347.765 246.83 353.523 243.034 362.966 240.502C370.337 238.546 374.367 238.316 392.793 238.546C408.686 238.89 415.596 239.467 419.972 240.848Z" fill="#090E16"/>
<path fill-rule="evenodd" clip-rule="evenodd" d="M286.958 356.03C288.455 365.581 295.711 375.362 304.694 379.965C311.258 383.417 323.35 384.107 330.26 381.461C340.625 377.434 349.608 366.617 351.22 356.03H286.958Z" fill="#3E291B"/>
<path fill-rule="evenodd" clip-rule="evenodd" d="M285.974 332.045C284.22 332.682 279.915 334.752 276.407 336.744C272.899 338.655 268.913 340.727 267.558 341.285C264.768 342.399 256.557 342.718 253.926 341.842C252.411 341.363 252.092 341.523 252.092 343.036C252.092 345.506 257.275 350.126 262.935 352.835C270.269 356.339 279.835 355.622 291.794 350.604C296.41 349.244 303.087 345.603 308.455 343.754C320.283 339.575 326.325 341.973 336.996 346.542L346.323 350.604C358.282 355.622 367.848 356.339 375.183 352.835C380.923 350.126 386.264 345.267 385.866 343.196C385.706 342.399 384.988 341.922 384.351 342.081C383.713 342.24 380.763 342.32 377.734 342.32C372.95 342.24 371.515 341.842 365.776 338.895C350.23 330.77 352.462 331.407 340.982 331.407C331.814 331.407 329.98 331.725 324.879 333.558L319.058 335.628L313.318 333.558C306.303 331.088 291.395 330.292 285.974 332.045Z" fill="#2C1B18" fill-opacity="0.301961"/>
<path d="M359.721 578.002L367.116 571.994C368.83 570.602 371.349 570.861 372.742 572.574C374.136 574.286 373.876 576.802 372.162 578.195L368.583 581.102L394.568 602.978C396.281 604.37 396.541 606.887 395.148 608.599C394.357 609.57 393.205 610.074 392.043 610.074C391.156 610.074 390.263 609.781 389.522 609.179L359.721 584.202C358.787 583.443 358.245 582.305 358.245 581.102C358.245 579.899 358.787 578.76 359.721 578.002Z" fill="#7B4AE2"/>
<path d="M392.56 541.293C394.683 541.31 396.391 543.043 396.374 545.165L396.044 606.263C396.027 608.384 394.291 610.091 392.168 610.074C391.63 610.07 391.12 609.955 390.656 609.752C389.291 609.154 388.341 607.786 388.354 606.201L388.685 545.104C388.702 542.982 390.437 541.276 392.56 541.293Z" fill="#7B4AE2"/>
<path d="M409.437 583.321L412.169 581.102L402.441 573.198C400.727 571.806 400.468 569.29 401.861 567.577C403.254 565.865 405.773 565.606 407.487 566.998L421.03 578.002C421.965 578.76 422.507 579.899 422.507 581.102C422.507 582.305 421.965 583.443 421.03 584.202L414.483 589.522C413.742 590.123 412.849 590.417 411.963 590.417C410.8 590.417 409.648 589.913 408.857 588.942C407.464 587.23 407.724 584.713 409.437 583.321Z" fill="#C83267"/>
<path fill-rule="evenodd" clip-rule="evenodd" d="M239.624 466.93C205.652 470.236 174.789 482.889 149.107 503.977C127.008 522.046 120.843 536.407 104.663 556.86C137.629 591.033 181.958 619.988 230.298 635.98C262.543 646.58 284.54 650 319.088 650C353.639 650 375.634 646.58 407.881 635.98C456.649 620.396 497.728 594.859 534.759 558.205C509.396 525.495 498.957 504.057 458.091 483.914C440.931 475.365 420.778 469.21 405.346 467.614L398.078 466.959L397.733 466.952L396.939 472.402C393.485 498.392 360.895 517.542 320.241 517.542C279.589 517.542 247.573 498.619 243.426 472.288C242.621 467.045 242.274 466.588 239.626 466.93H239.624Z" fill="#090E16"/>
<path fill-rule="evenodd" clip-rule="evenodd" d="M260.698 420.613L260.218 420.462C258.905 420.049 265.355 417.106 267.641 416.013C274.36 412.803 283.123 413.459 294.077 418.056C298.306 419.302 304.422 422.637 309.34 424.331C320.174 428.16 325.709 425.962 335.484 421.778L344.029 418.056C354.983 413.459 363.746 412.803 370.465 416.013C372.718 417.077 374.943 418.457 376.637 419.932L377.147 420.376C357.539 435.321 294.686 442.75 260.698 420.613Z" fill="#2C1B18" fill-opacity="0.501961"/>
<path d="M386.489 560.392L390.339 557.264C391.231 556.539 392.542 556.675 393.267 557.566C393.993 558.457 393.858 559.768 392.965 560.492L391.103 562.006L404.628 573.396C405.521 574.12 405.656 575.431 404.93 576.322C404.519 576.828 403.919 577.09 403.314 577.09C402.853 577.09 402.388 576.938 402.002 576.624L386.489 563.62C386.003 563.225 385.721 562.632 385.721 562.006C385.721 561.38 386.003 560.787 386.489 560.392Z" fill="white"/>
<path d="M403.584 541.28C404.689 541.289 405.578 542.191 405.569 543.296L405.397 575.106C405.388 576.211 404.485 577.099 403.379 577.09C403.099 577.088 402.834 577.028 402.592 576.923C401.882 576.611 401.387 575.899 401.394 575.074L401.566 543.264C401.575 542.16 402.478 541.271 403.584 541.28Z" fill="white"/>
<path d="M412.369 563.161L413.791 562.006L408.727 557.891C407.835 557.167 407.7 555.856 408.425 554.965C409.15 554.073 410.461 553.938 411.353 554.663L418.404 560.392C418.89 560.787 419.172 561.38 419.172 562.006C419.172 562.632 418.89 563.225 418.404 563.62L414.996 566.39C414.609 566.703 414.145 566.856 413.684 566.856C413.078 566.856 412.478 566.594 412.067 566.088C411.342 565.196 411.477 563.886 412.369 563.161Z" fill="#7B4AE2"/>
</g>
<defs>
<filter id="filter0_d_21_4106" x="484.333" y="249.3" width="171.62" height="171.62" filterUnits="userSpaceOnUse" color-interpolation-filters="sRGB">
<feFlood flood-opacity="0" result="BackgroundImageFix"/>
<feColorMatrix in="SourceAlpha" type="matrix" values="0 0 0 0 0 0 0 0 0 0 0 0 0 0 0 0 0 0 127 0" result="hardAlpha"/>
<feOffset dy="4"/>
<feGaussianBlur stdDeviation="25"/>
<feComposite in2="hardAlpha" operator="out"/>
<feColorMatrix type="matrix" values="0 0 0 0 0 0 0 0 0 0 0 0 0 0 0 0 0 0 0.5 0"/>
<feBlend mode="normal" in2="BackgroundImageFix" result="effect1_dropShadow_21_4106"/>
<feBlend mode="normal" in="SourceGraphic" in2="effect1_dropShadow_21_4106" result="shape"/>
</filter>
<filter id="filter1_d_21_4106" x="0" y="157.984" width="171.62" height="171.62" filterUnits="userSpaceOnUse" color-interpolation-filters="sRGB">
<feFlood flood-opacity="0" result="BackgroundImageFix"/>
<feColorMatrix in="SourceAlpha" type="matrix" values="0 0 0 0 0 0 0 0 0 0 0 0 0 0 0 0 0 0 127 0" result="hardAlpha"/>
<feOffset dy="4"/>
<feGaussianBlur stdDeviation="25"/>
<feComposite in2="hardAlpha" operator="out"/>
<feColorMatrix type="matrix" values="0 0 0 0 0 0 0 0 0 0 0 0 0 0 0 0 0 0 0.5 0"/>
<feBlend mode="normal" in2="BackgroundImageFix" result="effect1_dropShadow_21_4106"/>
<feBlend mode="normal" in="SourceGraphic" in2="effect1_dropShadow_21_4106" result="shape"/>
</filter>
<filter id="filter2_d_21_4106" x="0" y="387.169" width="171.62" height="171.62" filterUnits="userSpaceOnUse" color-interpolation-filters="sRGB">
<feFlood flood-opacity="0" result="BackgroundImageFix"/>
<feColorMatrix in="SourceAlpha" type="matrix" values="0 0 0 0 0 0 0 0 0 0 0 0 0 0 0 0 0 0 127 0" result="hardAlpha"/>
<feOffset dy="4"/>
<feGaussianBlur stdDeviation="25"/>
<feComposite in2="hardAlpha" operator="out"/>
<feColorMatrix type="matrix" values="0 0 0 0 0 0 0 0 0 0 0 0 0 0 0 0 0 0 0.5 0"/>
<feBlend mode="normal" in2="BackgroundImageFix" result="effect1_dropShadow_21_4106"/>
<feBlend mode="normal" in="SourceGraphic" in2="effect1_dropShadow_21_4106" result="shape"/>
</filter>
<filter id="filter3_f_21_4106" x="4.47626" y="0" width="610.296" height="610.296" filterUnits="userSpaceOnUse" color-interpolation-filters="sRGB">
<feFlood flood-opacity="0" result="BackgroundImageFix"/>
<feBlend mode="normal" in="SourceGraphic" in2="BackgroundImageFix" result="shape"/>
<feGaussianBlur stdDeviation="25" result="effect1_foregroundBlur_21_4106"/>
</filter>
<filter id="filter4_i_21_4106" x="104.663" y="51.7905" width="430.095" height="602.209" filterUnits="userSpaceOnUse" color-interpolation-filters="sRGB">
<feFlood flood-opacity="0" result="BackgroundImageFix"/>
<feBlend mode="normal" in="SourceGraphic" in2="BackgroundImageFix" result="shape"/>
<feColorMatrix in="SourceAlpha" type="matrix" values="0 0 0 0 0 0 0 0 0 0 0 0 0 0 0 0 0 0 127 0" result="hardAlpha"/>
<feOffset dy="4"/>
<feGaussianBlur stdDeviation="2"/>
<feComposite in2="hardAlpha" operator="arithmetic" k2="-1" k3="1"/>
<feColorMatrix type="matrix" values="0 0 0 0 0 0 0 0 0 0 0 0 0 0 0 0 0 0 0.25 0"/>
<feBlend mode="normal" in2="shape" result="effect1_innerShadow_21_4106"/>
</filter>
<linearGradient id="paint0_linear_21_4106" x1="107.115" y1="409.598" x2="532.149" y2="562.76" gradientUnits="userSpaceOnUse">
<stop/>
<stop offset="1" stop-opacity="0"/>
</linearGradient>
<clipPath id="clip0_21_4106">
<rect width="35.8102" height="35.8102" fill="white" transform="translate(67.9051 451.074)"/>
</clipPath>
</defs>
</svg>
