<svg width="64" height="64" viewBox="0 0 64 64" fill="none" xmlns="http://www.w3.org/2000/svg">
<g clip-path="url(#clip0_21_3162)">
<path fill-rule="evenodd" clip-rule="evenodd" d="M21.4167 -0.000488281C15.5287 -0.000488281 10.75 4.77818 10.75 10.6662C10.75 16.5542 15.5287 21.3328 21.4167 21.3328C15.5287 21.3328 10.75 26.1115 10.75 31.9995C10.75 37.8875 15.5287 42.6662 21.4167 42.6662C15.5287 42.6662 10.75 47.4449 10.75 53.3329C10.75 59.2209 15.5287 63.9995 21.4167 63.9995C27.3047 63.9995 32.0833 59.2209 32.0833 53.3329L32.0833 31.9995C32.0833 37.8875 36.862 42.6662 42.75 42.6662C48.638 42.6662 53.4167 37.8875 53.4167 31.9995C53.4167 26.1115 48.638 21.3328 42.75 21.3328C48.638 21.3328 53.4167 16.5542 53.4167 10.6662C53.4167 4.77818 48.638 -0.000488281 42.75 -0.000488281H21.4167ZM42.75 21.3328H32.0833L32.0833 31.9995C32.0833 26.1115 36.862 21.3328 42.75 21.3328Z" fill="#7B4AE2" fill-opacity="0.5"/>
</g>
<defs>
<clipPath id="clip0_21_3162">
<rect width="64" height="64" fill="white" transform="translate(0 -0.000488281)"/>
</clipPath>
</defs>
</svg>
