<svg width="400" height="400" viewBox="0 0 400 400" fill="none" xmlns="http://www.w3.org/2000/svg">
<path d="M374.375 222.6L354.75 163.75L315.95 47C315.491 45.6781 314.629 44.5332 313.485 43.7262C312.342 42.9191 310.975 42.4903 309.575 42.5C308.18 42.4955 306.818 42.9267 305.68 43.7335C304.541 44.5402 303.683 45.6821 303.225 47L264.425 163.675H135.55L96.75 46.975C96.2909 45.6597 95.4318 44.5211 94.2931 43.7186C93.1543 42.9161 91.7931 42.49 90.4 42.5C89.0039 42.4918 87.6404 42.9215 86.5013 43.7288C85.3622 44.536 84.5049 45.6801 84.05 47L45.3 163.675L25.7 222.6C24.8326 225.225 24.8334 228.06 25.7024 230.685C26.5714 233.31 28.2623 235.586 30.525 237.175L200.025 357.475L369.475 237.175C371.748 235.593 373.452 233.322 374.334 230.697C375.216 228.073 375.231 225.234 374.375 222.6Z" fill="#7B4AE2" fill-opacity="0.5"/>
<path d="M200 357.4L264.45 163.65H135.575L200 357.4Z" fill="#7B4AE2"/>
<path d="M200 357.4L135.525 163.65H45.325L200 357.4Z" fill="#7B4AE2" fill-opacity="0.5"/>
<path d="M45.25 163.725L25.65 222.575C24.7825 225.2 24.7834 228.035 25.6523 230.66C26.5213 233.285 28.2123 235.561 30.475 237.15L200 357.5L45.25 163.75V163.725Z" fill="#7B4AE2" fill-opacity="0.2"/>
<path d="M45.3 163.725H135.6L96.75 47.05C96.2919 45.7321 95.4337 44.5902 94.2954 43.7834C93.157 42.9767 91.7952 42.5455 90.4 42.55C89.0005 42.5403 87.6331 42.9691 86.4898 43.7762C85.3464 44.5832 84.4845 45.7281 84.025 47.05L45.3 163.725Z" fill="#7B4AE2"/>
<path d="M200 357.4L264.45 163.65H354.8L200 357.4Z" fill="#7B4AE2" fill-opacity="0.5"/>
<path d="M354.75 163.725L374.325 222.575C375.197 225.2 375.198 228.036 374.328 230.662C373.459 233.288 371.766 235.563 369.5 237.15L200 357.4L354.7 163.725H354.75Z" fill="#7B4AE2" fill-opacity="0.2"/>
<path d="M354.75 163.725H264.5L303.275 47.05C303.731 45.726 304.592 44.579 305.736 43.7714C306.881 42.9638 308.25 42.5365 309.65 42.55C312.525 42.55 315.075 44.375 316 47.05L354.8 163.725H354.75Z" fill="#7B4AE2"/>
</svg>
