<svg width="64" height="64" viewBox="0 0 64 64" fill="none" xmlns="http://www.w3.org/2000/svg">
<path fill-rule="evenodd" clip-rule="evenodd" d="M62.7941 29.1484L34.8502 1.20665C33.2421 -0.402867 30.6319 -0.402867 29.0217 1.20665L23.2191 7.00919L30.5799 14.37C32.2906 13.792 34.2519 14.1797 35.6156 15.5434C36.9857 16.9156 37.3705 18.8938 36.7785 20.61L43.8725 27.704C45.5887 27.1127 47.569 27.4954 48.9398 28.8683C50.8555 30.7832 50.8555 33.8871 48.9398 35.8035C47.0234 37.7199 43.9195 37.7199 42.0024 35.8035C40.5614 34.3611 40.2054 32.2446 40.935 30.4693L34.3193 23.8536L34.3186 41.2634C34.7856 41.4951 35.2266 41.8034 35.6156 42.191C37.5313 44.106 37.5313 47.2099 35.6156 49.1276C33.6992 51.0433 30.594 51.0433 28.6804 49.1276C26.7647 47.2099 26.7647 44.106 28.6804 42.191C29.1537 41.7184 29.7014 41.361 30.2857 41.1208V23.5489C29.7014 23.3101 29.1544 22.9548 28.6804 22.4787C27.2289 21.0292 26.8799 18.8994 27.6235 17.1171L20.3681 9.86025L1.20766 29.0192C-0.402554 30.6302 -0.402554 33.2404 1.20766 34.8499L29.1516 62.7924C30.7604 64.4019 33.3699 64.4019 34.9808 62.7924L62.7941 34.9798C64.4036 33.3696 64.4036 30.758 62.7941 29.1484Z" fill="#7B4AE2" fill-opacity="0.5"/>
</svg>
