<svg width="64" height="64" viewBox="0 0 64 64" fill="none" xmlns="http://www.w3.org/2000/svg">
<path fill-rule="evenodd" clip-rule="evenodd" d="M32.0003 1.49951C14.7435 1.49951 0.75 15.4904 0.75 32.7498C0.75 46.557 9.70415 58.2709 22.1208 62.4031C23.6826 62.6923 24.256 61.7251 24.256 60.8997C24.256 60.1546 24.227 57.6928 24.2136 55.0816C15.5197 56.972 13.6852 51.3945 13.6852 51.3945C12.2637 47.7824 10.2154 46.8219 10.2154 46.8219C7.3801 44.8824 10.4292 44.9222 10.4292 44.9222C13.5672 45.1427 15.2196 48.1425 15.2196 48.1425C18.0068 52.92 22.5302 51.5388 24.3134 50.7404C24.5939 48.7206 25.4038 47.342 26.2975 46.5616C19.3564 45.7714 12.0598 43.0918 12.0598 31.1176C12.0598 27.7058 13.2805 24.9181 15.2796 22.7296C14.9551 21.9425 13.8855 18.7641 15.5823 14.4596C15.5823 14.4596 18.2065 13.6197 24.1784 17.6628C26.6711 16.9704 29.3445 16.6232 32.0003 16.6113C34.656 16.6232 37.3315 16.9704 39.8289 17.6628C45.7935 13.6197 48.414 14.4596 48.414 14.4596C50.115 18.7641 49.0449 21.9425 48.7204 22.7296C50.7241 24.9181 51.9366 27.7058 51.9366 31.1176C51.9366 43.1203 44.626 45.7631 37.6673 46.5368C38.7882 47.5065 39.7869 49.4083 39.7869 52.3239C39.7869 56.5052 39.7507 59.8704 39.7507 60.8997C39.7507 61.7313 40.3132 62.7058 41.8973 62.3989C54.3072 58.2621 63.25 46.5523 63.25 32.7498C63.25 15.4904 49.2586 1.49951 32.0003 1.49951ZM12.4542 46.0162C12.3854 46.1714 12.1412 46.218 11.9186 46.1114C11.692 46.0094 11.5647 45.7978 11.6382 45.642C11.7054 45.4821 11.9502 45.4376 12.1763 45.5447C12.4035 45.6467 12.5329 45.8604 12.4542 46.0162ZM13.9914 47.3878C13.8424 47.5259 13.551 47.4618 13.3533 47.2434C13.1489 47.0255 13.1106 46.7342 13.2617 46.5939C13.4154 46.4558 13.698 46.5204 13.9029 46.7383C14.1073 46.9588 14.1472 47.248 13.9914 47.3878ZM15.046 49.1427C14.8545 49.2757 14.5414 49.1509 14.3479 48.8731C14.1564 48.5952 14.1564 48.2619 14.352 48.1284C14.5461 47.9949 14.8545 48.1149 15.0506 48.3907C15.2416 48.6733 15.2416 49.0066 15.046 49.1427ZM16.8294 51.1751C16.6581 51.364 16.2933 51.3133 16.0263 51.0555C15.7531 50.8035 15.677 50.4459 15.8488 50.2571C16.0221 50.0677 16.389 50.121 16.6581 50.3766C16.9293 50.6281 17.0121 50.9883 16.8294 51.1751ZM19.1344 51.8612C19.0588 52.106 18.7075 52.2173 18.3535 52.1132C18.0001 52.0061 17.7687 51.7194 17.8402 51.4721C17.9136 51.2257 18.2666 51.1098 18.6231 51.2211C18.9761 51.3277 19.2079 51.6123 19.1344 51.8612ZM21.7576 52.1523C21.7664 52.41 21.4662 52.6237 21.0946 52.6283C20.721 52.6366 20.4188 52.4281 20.4147 52.1745C20.4147 51.9142 20.7081 51.7026 21.0817 51.6963C21.4533 51.6891 21.7576 51.8961 21.7576 52.1523ZM24.3345 52.0535C24.379 52.305 24.1208 52.5632 23.7518 52.632C23.3891 52.6983 23.0532 52.543 23.0071 52.2936C22.9621 52.0359 23.225 51.7776 23.5872 51.7109C23.9567 51.6467 24.2874 51.7978 24.3345 52.0535Z" fill="#7B4AE2" fill-opacity="0.5"/>
</svg>
