<svg width="400" height="400" viewBox="0 0 400 400" fill="none" xmlns="http://www.w3.org/2000/svg">
<path d="M181.075 254.763C182.065 267.807 181.873 280.915 180.5 293.925C180.442 295.754 179.905 297.535 178.942 299.09C177.979 300.646 176.624 301.921 175.012 302.788C164.625 310.5 129.812 312.35 125.475 295.963C123.875 295.9 125.15 290.6 123.625 290.8C120.58 290.55 117.636 289.588 115.031 287.992C112.426 286.397 110.231 284.211 108.625 281.613C108.687 263.687 110.662 199.025 78.625 216.438C71.6631 220.318 66.4421 226.705 64.025 234.3C61.8663 240.926 60.8518 247.871 61.025 254.837C60.775 263.762 63 273.525 63.325 284.238C63.45 289.025 64.2125 290.238 60.65 294.313C54.9125 300.875 44.9 295.338 39.4875 288.125C37.1985 284.492 35.9411 280.305 35.85 276.013C31.5453 229.189 35.7807 181.973 48.35 136.662C52.9375 121.287 54.5375 119.062 69.1375 115.612C85.75 111.958 102.835 110.946 119.762 112.612C132.9 108.337 164.075 85.1875 177.525 103.562C197.933 99.0314 219.042 98.6326 239.606 102.39C260.171 106.147 279.775 113.983 297.262 125.438C314.975 126.778 332.75 127.1 350.5 126.4C353 124.8 355.925 123.088 358.475 121.613C360.347 120.345 362.449 119.457 364.662 119C367.537 118.55 371.287 118.425 372.162 122C372.924 125.669 373.18 129.424 372.925 133.163C372.838 135.416 372 137.576 370.543 139.297C369.086 141.019 367.096 142.204 364.887 142.663C359.897 141.843 355.06 140.276 350.537 138.013C334.287 138.463 324.287 137.563 308.037 138.013C310.65 140.813 310.537 142.663 312.437 146.363C317.108 158.653 318.667 171.908 316.977 184.948C315.287 197.987 310.4 210.406 302.75 221.1C301.6 239.725 303 258.538 303.137 277.225C303.2 283.663 303.65 289.788 297.587 294.063C292.24 297.268 286.23 299.205 280.017 299.725C273.805 300.246 267.556 299.335 261.75 297.063C258.586 295.246 255.76 292.895 253.4 290.113C251.325 290.34 249.233 290.382 247.15 290.238C243.609 289.247 240.548 287.004 238.537 283.925C237.385 281.819 236.403 279.625 235.6 277.362C235.6 268.612 235.275 265.188 235.275 256.45C217.254 259.675 198.762 259.156 180.95 254.925L181.075 254.763Z" fill="#090E16"/>
<path d="M151.188 310.488C146.025 310.564 140.884 309.787 135.975 308.188C133.25 307.456 130.732 306.099 128.623 304.224C126.514 302.349 124.871 300.008 123.825 297.388C122.914 296.252 122.467 294.814 122.575 293.362V292.8C119.398 292.324 116.359 291.173 113.664 289.424C110.969 287.675 108.68 285.37 106.95 282.663L106.65 282.175V278.925C106.763 264.15 107.05 224.887 93.725 216.9C91.4823 215.81 88.9855 215.351 86.5018 215.571C84.0181 215.791 81.6411 216.683 79.625 218.15C73.0572 221.81 68.1378 227.843 65.875 235.013C63.8142 241.422 62.8507 248.133 63.025 254.862C63.0255 259.881 63.3806 264.894 64.0875 269.863C64.625 274.438 65.175 279.187 65.3375 284.175C65.3375 284.912 65.3375 285.55 65.425 286.125C65.7096 287.854 65.5617 289.626 64.9946 291.284C64.4275 292.941 63.4588 294.433 62.175 295.625C61.1597 296.824 59.8815 297.773 58.4398 298.397C56.998 299.021 55.4316 299.305 53.8625 299.225C50.6593 298.782 47.5846 297.673 44.8371 295.967C42.0897 294.262 39.7306 291.999 37.9125 289.325C35.3489 285.408 33.9529 280.843 33.8875 276.163C29.5274 229.093 33.7974 181.623 46.4875 136.088C51.175 120.4 53.2375 117.337 68.725 113.675C85.4106 110.003 102.568 108.961 119.575 110.588C123.314 109.132 126.965 107.462 130.513 105.587C145.913 97.8875 166.888 87.425 178.4 101.413C198.805 97.0093 219.88 96.6953 240.407 100.489C260.933 104.282 280.504 112.108 297.988 123.512C315.293 124.814 332.66 125.114 350 124.413C352.5 122.875 355.15 121.275 357.575 119.875L358.275 119.475C360.149 118.244 362.248 117.395 364.45 116.975C370 116.112 373.2 117.638 374.163 121.488C374.964 125.345 375.237 129.294 374.975 133.225C374.849 135.956 373.804 138.565 372.01 140.628C370.215 142.69 367.775 144.086 365.088 144.588H364.763L364.45 144.5C363.388 144.225 362.313 143.975 361.2 143.725C357.3 143.057 353.523 141.801 350 140C342.088 140.2 335.563 140.088 329.263 140C323.85 139.913 318.288 139.813 311.838 139.913C312.238 140.7 312.525 141.462 312.838 142.237C313.243 143.33 313.711 144.398 314.238 145.438C319.087 157.996 320.756 171.559 319.096 184.919C317.437 198.279 312.5 211.022 304.725 222.012C304.025 234.087 304.388 246.475 304.725 258.463C304.913 264.6 305.1 270.963 305.138 277.213V278.288C305.74 281.498 305.461 284.812 304.332 287.878C303.203 290.944 301.266 293.646 298.725 295.7C293.11 299.119 286.778 301.188 280.228 301.745C273.677 302.303 267.087 301.333 260.975 298.913C258.284 297.58 255.887 295.723 253.925 293.45C253.488 293 253.05 292.55 252.6 292.125C251.988 292.125 251.35 292.2 250.788 292.263C249.419 292.478 248.023 292.452 246.663 292.188C242.642 291.075 239.163 288.538 236.875 285.05C235.995 283.631 235.278 282.117 234.738 280.538C234.45 279.775 234.15 279 233.788 278.187L233.613 277.8V277.375C233.613 273.038 233.538 269.95 233.45 266.975C233.388 264.475 233.325 261.975 233.3 258.737C216.707 261.467 199.75 261.077 183.3 257.588C184.051 269.801 183.78 282.057 182.488 294.225C182.394 296.31 181.771 298.337 180.677 300.115C179.584 301.893 178.056 303.363 176.238 304.387C168.622 308.724 159.944 310.837 151.188 310.488ZM126.575 294.012H127.025L127.4 295.438C128.156 297.647 129.459 299.629 131.188 301.198C132.917 302.767 135.016 303.873 137.288 304.413C149.422 308.112 162.518 306.951 173.813 301.175C175.201 300.468 176.37 299.396 177.196 298.075C178.022 296.754 178.473 295.233 178.5 293.675C179.806 281.318 180.036 268.871 179.188 256.475L178.125 256.175L182.5 247.5L183.013 253.288C200.142 257.075 217.851 257.449 235.125 254.387L237.388 254.087V256.363C237.388 260.7 237.463 263.787 237.55 266.762C237.638 269.737 237.7 272.675 237.713 276.85C238.025 277.588 238.3 278.3 238.575 278.988C239.016 280.297 239.599 281.554 240.313 282.737C242.063 285.419 244.729 287.374 247.813 288.238C248.708 288.372 249.618 288.372 250.513 288.238C251.525 288.118 252.543 288.063 253.563 288.075H254.313L254.863 288.587C255.538 289.212 256.213 289.9 256.888 290.587C258.492 292.468 260.444 294.022 262.638 295.163C268.129 297.305 274.037 298.166 279.911 297.681C285.786 297.196 291.472 295.377 296.538 292.362C301.388 288.937 301.325 284.237 301.25 278.275V277.187C301.25 270.937 301.025 264.688 300.838 258.538C300.475 246.2 300.1 233.437 300.838 220.925V220.1L301.463 219.55C308.831 209.186 313.53 197.165 315.141 184.551C316.752 171.937 315.227 159.121 310.7 147.238C310.107 146.073 309.582 144.875 309.125 143.65C308.622 142.041 307.768 140.564 306.625 139.325L303.613 136.088L308.025 135.963C316.2 135.738 322.875 135.85 329.35 135.963C335.825 136.075 342.413 136.188 350.488 135.963H351.075L351.575 136.275C354.834 138.041 358.359 139.261 362.013 139.888C363.038 140.125 364.05 140.35 365.038 140.6C366.682 140.089 368.128 139.084 369.182 137.722C370.235 136.36 370.844 134.707 370.925 132.988C371.164 129.442 370.92 125.88 370.2 122.4C370.025 121.638 369.688 120.2 365 120.938C363.286 121.275 361.655 121.946 360.2 122.913L359.5 123.313C357 124.738 354.138 126.475 351.613 128.05L351.15 128.338H350.613C332.784 129.068 314.928 128.746 297.138 127.375H296.613L296.175 127.075C278.907 115.753 259.543 108.01 239.229 104.306C218.916 100.603 198.065 101.013 177.913 105.513L176.663 105.737L175.925 104.737C166.588 91.9875 146.75 101.9 132.263 109.138C128.427 111.189 124.46 112.985 120.388 114.513L119.988 114.637H119.575C102.857 112.988 85.9832 113.984 69.575 117.587C55.5625 120.887 54.575 122.588 50.2375 137.263C37.6695 182.325 33.4334 229.304 37.7375 275.887C37.7643 279.799 38.8811 283.626 40.9625 286.937C42.434 289.132 44.3385 291.002 46.5589 292.434C48.7794 293.865 51.2691 294.828 53.875 295.263C54.8505 295.319 55.8257 295.146 56.7223 294.758C57.6189 294.369 58.4118 293.776 59.0375 293.025C59.9778 292.222 60.685 291.181 61.0852 290.011C61.4854 288.842 61.5639 287.586 61.3125 286.375C61.3125 285.762 61.2375 285.125 61.225 284.325C61.0875 279.5 60.5375 274.85 59.975 270.35C59.2439 265.203 58.8805 260.011 58.8875 254.813C58.7047 247.602 59.7661 240.413 62.025 233.562C64.6241 225.543 70.1616 218.804 77.525 214.7C80.1343 212.867 83.1948 211.782 86.3759 211.561C89.5571 211.341 92.738 211.994 95.575 213.45C110.863 222.613 110.575 262.075 110.45 278.925V281.013C111.881 283.181 113.776 285.004 115.999 286.349C118.221 287.693 120.715 288.527 123.3 288.788C123.634 288.75 123.973 288.781 124.295 288.878C124.617 288.974 124.916 289.135 125.175 289.35C125.627 289.857 125.971 290.451 126.186 291.096C126.401 291.741 126.482 292.423 126.425 293.1C126.538 293.387 126.55 293.75 126.575 294.012Z" fill="#090E16"/>
<path d="M173.637 249.763C174.628 262.807 174.435 275.915 173.062 288.925C173.005 290.754 172.467 292.535 171.504 294.09C170.541 295.646 169.186 296.921 167.575 297.788C157.187 305.5 122.375 307.35 118.037 290.963C116.437 290.9 117.712 285.6 116.187 285.8C113.143 285.55 110.199 284.588 107.593 282.992C104.988 281.397 102.794 279.211 101.187 276.613C101.25 258.687 103.225 194.025 71.1875 211.438C64.2256 215.318 59.0046 221.705 56.5875 229.3C54.4288 235.926 53.4143 242.871 53.5875 249.837C53.3375 258.762 55.5625 268.525 55.8875 279.238C56.0125 284.025 56.775 285.238 53.2125 289.313C47.475 295.875 37.4625 290.338 32.05 283.125C29.761 279.492 28.5036 275.305 28.4125 271.013C24.1078 224.189 28.3432 176.973 40.9125 131.662C45.5 116.287 47.1 114.062 61.7 110.612C78.3125 106.958 95.3972 105.946 112.325 107.612C125.462 103.337 156.637 80.1875 170.087 98.5625C190.495 94.0314 211.604 93.6326 232.169 97.3896C252.733 101.147 272.337 108.983 289.825 120.438C307.538 121.778 325.313 122.099 343.062 121.4C345.562 119.8 348.487 118.088 351.037 116.613C352.909 115.345 355.011 114.457 357.225 114C360.1 113.55 363.85 113.425 364.725 117C365.486 120.669 365.743 124.424 365.487 128.163C365.401 130.416 364.562 132.576 363.106 134.297C361.649 136.019 359.658 137.204 357.45 137.662C352.46 136.843 347.622 135.276 343.1 133.012C326.85 133.462 316.85 132.562 300.6 133.012C303.212 135.812 303.1 137.663 305 141.363C309.67 153.653 311.23 166.908 309.54 179.948C307.85 192.987 302.962 205.406 295.312 216.1C294.162 234.725 295.562 253.538 295.7 272.225C295.762 278.663 296.212 284.788 290.15 289.063C284.803 292.268 278.792 294.205 272.58 294.725C266.367 295.246 260.118 294.335 254.312 292.063C251.148 290.246 248.323 287.895 245.962 285.113C243.887 285.34 241.795 285.382 239.712 285.238C236.171 284.247 233.11 282.004 231.1 278.925C229.948 276.819 228.965 274.625 228.162 272.362C228.162 263.612 227.837 260.187 227.837 251.45C209.816 254.675 191.324 254.156 173.512 249.925L173.637 249.763Z" fill="#090E16"/>
<path d="M143.75 305.487C138.587 305.564 133.447 304.787 128.537 303.187C125.812 302.456 123.295 301.099 121.186 299.224C119.077 297.349 117.434 295.008 116.387 292.387C115.476 291.252 115.03 289.814 115.137 288.363V287.8C111.96 287.324 108.922 286.173 106.227 284.424C103.532 282.675 101.242 280.37 99.5125 277.662L99.2125 277.175V273.925C99.325 259.15 99.6125 219.887 86.2875 211.9C84.0448 210.81 81.548 210.351 79.0643 210.571C76.5806 210.791 74.2035 211.683 72.1875 213.15C65.6197 216.81 60.7003 222.843 58.4375 230.012C56.3767 236.422 55.4131 243.133 55.5875 249.863C55.5879 254.881 55.9429 259.894 56.65 264.862C57.1875 269.45 57.7375 274.187 57.9 279.187C57.9 279.925 57.9 280.562 57.9875 281.137C58.272 282.866 58.1241 284.638 57.557 286.296C56.9899 287.954 56.0213 289.445 54.7375 290.637C53.7228 291.837 52.4447 292.786 51.0028 293.411C49.5609 294.035 47.9942 294.318 46.425 294.237C43.2217 293.795 40.147 292.685 37.3996 290.98C34.6521 289.274 32.2931 287.012 30.475 284.337C27.912 280.421 26.516 275.855 26.45 271.175C22.0883 224.101 26.3583 176.627 39.05 131.088C43.7375 115.4 45.8 112.338 61.2875 108.675C77.973 105.002 95.1301 103.961 112.137 105.587C115.876 104.132 119.528 102.462 123.075 100.587C138.475 92.8875 159.45 82.4125 170.962 96.4125C191.368 92.0118 212.443 91.7002 232.97 95.4957C253.497 99.2912 273.067 107.119 290.55 118.525C307.834 119.833 325.18 120.141 342.5 119.45C344.937 117.937 347.662 116.3 350.075 114.912L350.775 114.513C352.649 113.282 354.747 112.432 356.95 112.013C362.5 111.15 365.7 112.675 366.662 116.525C367.464 120.383 367.738 124.331 367.475 128.262C367.349 130.994 366.304 133.603 364.51 135.665C362.715 137.728 360.275 139.123 357.587 139.625H357.262L356.95 139.538C355.887 139.263 354.812 139.012 353.7 138.762C349.828 138.078 346.082 136.814 342.587 135.012C334.675 135.212 328.15 135.1 321.85 135.012C316.437 134.925 310.875 134.825 304.425 134.925C304.825 135.712 305.112 136.475 305.425 137.25C305.831 138.342 306.298 139.411 306.825 140.45C311.673 153.009 313.342 166.572 311.682 179.932C310.022 193.291 305.086 206.034 297.312 217.025C296.612 229.1 296.975 241.488 297.312 253.463C297.487 259.613 297.675 265.963 297.725 272.213V273.288C298.328 276.497 298.052 279.811 296.925 282.876C295.799 285.942 293.863 288.645 291.325 290.7C285.71 294.119 279.378 296.188 272.828 296.745C266.277 297.303 259.687 296.333 253.575 293.912C250.884 292.58 248.487 290.723 246.525 288.45C246.087 288 245.65 287.55 245.2 287.125C244.587 287.125 243.95 287.2 243.387 287.263C242.019 287.478 240.623 287.453 239.262 287.188C235.242 286.075 231.763 283.538 229.475 280.05C228.594 278.631 227.877 277.118 227.337 275.537C227.05 274.775 226.75 274 226.387 273.187L226.212 272.8V272.375C226.212 268.038 226.137 264.95 226.05 261.975C225.987 259.475 225.912 256.975 225.9 253.737C209.307 256.467 192.35 256.077 175.9 252.588C176.62 264.791 176.319 277.034 175 289.188C174.906 291.273 174.283 293.299 173.19 295.077C172.096 296.855 170.568 298.325 168.75 299.35C161.153 303.69 152.493 305.816 143.75 305.487ZM119.137 289.013H119.587L119.962 290.437C120.719 292.647 122.022 294.628 123.751 296.198C125.48 297.767 127.578 298.873 129.85 299.412C141.984 303.113 155.081 301.952 166.375 296.175C167.763 295.468 168.933 294.396 169.759 293.075C170.584 291.754 171.035 290.233 171.062 288.675C172.369 276.318 172.599 263.872 171.75 251.475L170.687 251.175L175 242.563L175.512 248.35C192.642 252.138 210.351 252.511 227.625 249.45L229.887 249.15V251.425C229.887 255.763 229.962 258.85 230.05 261.825C230.137 264.8 230.2 267.738 230.212 271.913C230.525 272.65 230.8 273.362 231.075 274.062C231.516 275.372 232.098 276.63 232.812 277.813C234.563 280.494 237.229 282.449 240.312 283.313C241.207 283.448 242.118 283.448 243.012 283.313C244.025 283.193 245.043 283.138 246.062 283.15H246.812L247.362 283.663C248.037 284.288 248.712 284.913 249.387 285.663C250.992 287.543 252.945 289.096 255.137 290.237C260.629 292.38 266.537 293.241 272.411 292.756C278.286 292.271 283.972 290.452 289.037 287.438C293.887 284.013 293.825 279.312 293.75 273.35V272.263C293.75 266.013 293.525 259.763 293.337 253.6C292.975 241.263 292.6 228.513 293.337 216V215.175L293.962 214.625C301.33 204.261 306.028 192.239 307.639 179.626C309.251 167.012 307.726 154.196 303.2 142.313C302.607 141.148 302.081 139.95 301.625 138.725C301.122 137.116 300.268 135.639 299.125 134.4L296.112 131.162L300.525 131.037C308.7 130.812 315.375 130.925 321.85 131.037C328.325 131.15 334.912 131.262 342.987 131.037H343.575L344.075 131.35C347.334 133.116 350.859 134.336 354.512 134.962C355.537 135.2 356.55 135.425 357.537 135.675C359.181 135.164 360.628 134.159 361.682 132.797C362.735 131.435 363.344 129.782 363.425 128.062C363.663 124.517 363.419 120.955 362.7 117.475C362.525 116.712 362.187 115.287 357.5 116.012C355.786 116.349 354.155 117.02 352.7 117.987L351.987 118.387C349.487 119.825 346.6 121.563 344.1 123.125L343.75 123.375H343.212C325.384 124.104 307.528 123.783 289.737 122.412H289.212L288.75 122.087C271.482 110.765 252.118 103.023 231.804 99.3188C211.491 95.6151 190.64 96.0252 170.487 100.525L169.237 100.75L168.5 99.75C159.162 87 139.325 96.9125 124.837 104.15C121.002 106.202 117.035 107.997 112.962 109.525L112.562 109.65H112.15C95.4318 108 78.5581 108.995 62.15 112.6C48.1375 115.9 47.15 117.6 42.8125 132.275C30.2445 177.338 26.0084 224.316 30.3125 270.9C30.3393 274.812 31.4561 278.638 33.5375 281.95C35.009 284.144 36.9134 286.015 39.1339 287.446C41.3544 288.878 43.844 289.84 46.45 290.275C47.4263 290.339 48.4038 290.169 49.3015 289.78C50.1992 289.391 50.9914 288.793 51.6125 288.037C52.5527 287.235 53.2599 286.194 53.6601 285.024C54.0604 283.854 54.1389 282.598 53.8875 281.387C53.8875 280.775 53.8125 280.138 53.8 279.338C53.6625 274.513 53.1125 269.863 52.55 265.363C51.8184 260.216 51.455 255.023 51.4625 249.825C51.2797 242.614 52.341 235.425 54.6 228.575C57.199 220.556 62.7365 213.817 70.1 209.713C72.7092 207.879 75.7697 206.794 78.9509 206.574C82.1321 206.353 85.313 207.007 88.15 208.463C103.437 217.625 103.15 257.088 103.025 273.938V276.025C104.474 278.2 106.391 280.022 108.636 281.359C110.882 282.696 113.398 283.513 116 283.75C116.334 283.713 116.673 283.743 116.995 283.84C117.317 283.937 117.616 284.097 117.875 284.313C118.327 284.82 118.671 285.414 118.886 286.059C119.101 286.703 119.182 287.385 119.125 288.063C119.1 288.388 119.112 288.75 119.137 289.013Z" fill="#090E16"/>
<path d="M232.15 249.325C236.161 248.938 240.123 248.147 243.975 246.962C245.91 258.308 246.485 269.843 245.688 281.325C242.769 281.509 239.861 280.819 237.336 279.343C234.812 277.867 232.784 275.671 231.513 273.037C230.867 265.134 231.081 257.183 232.15 249.325Z" fill="#7B4AE2" fill-opacity="0.5"/>
<path d="M245.275 283.325C242.059 283.434 238.88 282.608 236.124 280.946C233.368 279.284 231.154 276.858 229.75 273.962L229.562 273.612V273.212C228.909 265.163 229.127 257.066 230.212 249.062L230.412 247.513L231.962 247.338C235.841 246.96 239.672 246.198 243.4 245.062L245.45 244.4L245.95 246.5C247.83 256.736 248.447 267.164 247.787 277.55L247.687 283.287H245.762L245.275 283.325ZM233.475 272.45C234.452 274.375 235.91 276.014 237.709 277.208C239.507 278.402 241.584 279.11 243.737 279.262V277.462C244.275 268.119 243.856 258.746 242.487 249.487C239.682 250.225 236.83 250.768 233.95 251.113C233.077 258.208 232.914 265.372 233.462 272.5L233.475 272.45Z" fill="#090E16"/>
<path d="M50.65 283.538C47.8375 265.113 44.975 232.6 58.15 217.1C59.1927 215.695 60.3197 214.355 61.525 213.088C82.3125 193.513 100.425 210.35 105.338 232.025C106.379 245.729 106.592 259.483 105.975 273.213C107.203 275.601 109.098 277.581 111.431 278.912C113.763 280.244 116.432 280.869 119.113 280.713C121.025 284.663 120.513 287.6 122.688 290.212C126.816 294.846 132.23 298.146 138.241 299.691C144.252 301.236 150.586 300.956 156.438 298.887C160.353 297.228 164.164 295.332 167.85 293.213C170.834 276.446 170.409 259.249 166.6 242.65C166.6 240.35 165.838 238.825 165.838 236.525C167.268 236.73 168.613 237.327 169.725 238.25C167.225 247.425 201.675 253.738 241.863 242.65C242.313 241.05 241.538 239.075 242.5 238.5C243.122 238.111 243.821 237.863 244.549 237.775C245.277 237.686 246.016 237.759 246.713 237.987C246.9 240.925 246.963 243.788 247.163 246.738C250.279 247.031 253.414 247.073 256.538 246.863C254.487 248.707 251.792 249.668 249.038 249.537C249.738 249.537 248.65 250.875 249.288 251C251.138 251.45 254.65 250.75 256.113 251.387C253.375 252.987 250.313 252.088 248.463 253.888C248.913 263.638 249.163 274.1 249.55 283.888C255.578 288.463 263.018 290.783 270.578 290.445C278.139 290.108 285.342 287.133 290.938 282.037C292.132 262.453 291.714 242.803 289.688 223.288C288.225 223.1 286.75 222.837 285.288 222.65C308.125 191.925 312.525 160.487 293.388 132.112C293.2 130.862 292.363 129.612 292.138 128.362C308.788 127.725 325.888 129.45 342.588 128.812C347.096 130.52 351.748 131.821 356.488 132.7C361.4 130.975 362.288 117.337 357.45 118.862C352.613 120.387 349.95 123.45 344.763 125.362C325.625 125.362 304.388 124.6 285.263 124.6C269.649 112.178 251.158 103.889 231.495 100.501C211.833 97.1124 191.633 98.7328 172.763 105.212C178.575 117.728 181.854 131.269 182.412 145.057C182.97 158.844 180.795 172.606 176.013 185.55C174.925 189.125 158.413 199.575 171.925 188.163C185.575 176.563 177.025 95.975 160.25 95.8375C140.51 96.0424 121.561 103.622 107.125 117.087C104.513 114.287 104.7 115.425 105.875 111.475C91.5981 110.246 77.2161 111.515 63.375 115.225C59.7878 115.339 56.3184 116.533 53.4195 118.649C50.5207 120.765 48.3271 123.706 47.125 127.087C34.5104 172.169 29.4419 219.027 32.125 265.762C32.7818 271.367 34.2646 276.843 36.525 282.013C44.025 290.238 48.075 287.875 50.5625 283.538H50.65Z" fill="#7B4AE2" fill-opacity="0.5"/>
<path d="M80.575 130.275C76.3693 128.56 71.8026 127.92 67.2875 128.412C66.8733 128.367 66.4563 128.467 66.1075 128.695C65.7587 128.923 65.4999 129.265 65.375 129.662C65.2071 129.95 65.0985 130.269 65.0555 130.6C65.0126 130.93 65.0362 131.266 65.125 131.588C65.5125 132.675 65.575 132.612 66.525 132.837C67.7832 133.025 69.0679 132.914 70.275 132.512C71.702 131.761 73.2765 131.331 74.8876 131.253C76.4987 131.175 78.1072 131.452 79.6 132.062C81 132 81.1375 131.425 80.6875 130.325L80.575 130.275Z" fill="#090E16"/>
<path d="M67.575 134.888C67.0794 134.889 66.585 134.839 66.1 134.738H65.9375C65.2758 134.67 64.6538 134.39 64.1647 133.939C63.6757 133.489 63.3459 132.892 63.225 132.238C63.049 131.65 62.9926 131.033 63.0591 130.423C63.1257 129.813 63.3139 129.223 63.6125 128.688C63.9024 127.997 64.3967 127.411 65.0289 127.009C65.6612 126.606 66.4013 126.407 67.15 126.437C71.8164 125.944 76.533 126.583 80.9 128.3H81.925L82.4375 129.55C82.7246 130.021 82.8743 130.564 82.8697 131.116C82.8651 131.668 82.7063 132.208 82.4113 132.674C82.1162 133.141 81.6967 133.516 81.1999 133.757C80.7032 133.997 80.1491 134.095 79.6 134.037H79.3L78.9625 133.938C77.7315 133.404 76.3971 133.153 75.0564 133.2C73.7158 133.248 72.4027 133.594 71.2125 134.213L70.9875 134.35L70.7375 134.413C69.7083 134.707 68.6453 134.867 67.575 134.888ZM67.025 130.85C67.8667 130.937 68.7172 130.852 69.525 130.6L70.2 130.262C69.325 130.262 68.4375 130.263 67.5375 130.4H67.2125L67.1375 130.55C67.0831 130.643 67.045 130.744 67.025 130.85Z" fill="#090E16"/>
<path d="M70.275 146.088C70.8463 144.899 71.7478 143.901 72.8717 143.211C73.9956 142.522 75.2943 142.171 76.6125 142.2C76.8625 140.6 76.6125 139.7 74.5625 139.7C71.6511 141.176 69.1644 143.37 67.3375 146.075C66.2886 148.427 65.9539 151.035 66.375 153.575C66.6037 155.311 67.5006 156.89 68.875 157.975C70.2982 158.866 71.9574 159.306 73.635 159.236C75.3125 159.167 76.93 158.592 78.275 157.588C82.75 154.975 87.225 147.513 79.3625 144.7C77.7869 144.393 76.1657 144.403 74.5943 144.732C73.0229 145.06 71.5331 145.7 70.2125 146.613C70.0875 146.675 70.025 146.425 70.2125 146.1L70.275 146.088Z" fill="#090E16"/>
<path d="M72.7 161.325C70.8425 161.362 69.0333 160.732 67.6 159.55C65.8314 158.129 64.6841 156.076 64.4 153.825C63.8908 150.849 64.328 147.789 65.65 145.075C67.6503 142.073 70.3819 139.63 73.5875 137.975L74.025 137.713H74.5C75.1131 137.653 75.7318 137.729 76.3127 137.934C76.8935 138.139 77.4225 138.469 77.8625 138.9C78.2403 139.412 78.5011 140.002 78.6264 140.626C78.7516 141.25 78.7384 141.894 78.5875 142.513C80.2849 142.769 81.8656 143.531 83.1233 144.7C84.3809 145.868 85.2571 147.388 85.6375 149.063C85.5653 151.181 84.9416 153.245 83.828 155.049C82.7143 156.853 81.1493 158.336 79.2875 159.35C77.3021 160.573 75.0307 161.254 72.7 161.325ZM68.6625 148C68.2 149.761 68.0979 151.598 68.3625 153.4C68.5377 154.631 69.1885 155.744 70.175 156.5C72.5875 158.513 76.5 156.362 77.2625 155.912C78.4651 155.27 79.4938 154.345 80.2602 153.217C81.0266 152.089 81.5078 150.792 81.6625 149.438C81.55 148.188 80.55 147.287 78.7 146.625C76.0995 146.233 73.4475 146.85 71.2875 148.35L71.125 148.438L69.7875 149.113L68.6875 148H68.6625Z" fill="#090E16"/>
<path d="M73.75 154.762C73.776 155.218 73.8644 155.668 74.0125 156.1C74.0766 156.301 74.1648 156.495 74.275 156.675C73.9102 156.917 73.4917 157.067 73.056 157.11C72.6203 157.154 72.1805 157.09 71.775 156.925C69.0125 155.675 69.2125 151.8 70.625 149.7C71.365 148.617 72.3487 147.722 73.4971 147.089C74.6456 146.455 75.9266 146.099 77.2375 146.05C78.7125 146.813 79.1625 147.525 78.3875 147.713C77.9496 147.795 77.5277 147.947 77.1375 148.162C76.8407 148.296 76.5757 148.49 76.3601 148.734C76.1446 148.977 75.9835 149.264 75.8875 149.575C76.525 149.762 76.85 149.575 77.425 149.825V151.813C76.8107 151.504 76.1091 151.416 75.4375 151.563C74.1875 151.95 73.7 153.737 73.7 154.825L73.75 154.762Z" fill="#7B4AE2"/>
<path d="M79.0375 205.737C82.5786 204.979 85.9339 203.525 88.9091 201.46C91.8843 199.395 94.4202 196.76 96.37 193.708C98.3197 190.656 99.6445 187.248 100.268 183.68C100.891 180.113 100.8 176.457 100 172.925C97.7621 172.878 95.5695 172.286 93.6125 171.2C93.4875 170.375 93.425 169.537 93.2875 168.7C98.4625 171.2 105.787 171.95 104.837 164.037C105.537 163.85 106.625 163.787 107.337 163.587C107.087 169.137 106.087 169.65 102.675 172.012C103.656 178.063 103.144 184.263 101.184 190.071C99.2231 195.878 95.873 201.119 91.425 205.337C91.1602 207.074 91.3145 208.848 91.875 210.512C90.2387 208.803 88.2307 207.493 86.0066 206.685C83.7826 205.876 81.4022 205.59 79.05 205.85L79.0375 205.737Z" fill="#090E16"/>
<path d="M95.4 217.388L90.4 211.862C88.9485 210.368 87.1709 209.229 85.2063 208.535C83.2417 207.841 81.1433 207.611 79.075 207.862H77.05V204.363L78.4625 203.8C84.8984 202.48 90.5665 198.704 94.2634 193.273C97.9603 187.842 99.3949 181.184 98.2625 174.713C96.2357 174.561 94.2737 173.932 92.5375 172.875L91.7625 172.388L91.625 171.5C91.5625 171.063 91.5 170.625 91.45 170.188C91.4 169.75 91.3625 169.413 91.3 169.013L90.725 165.263L94.1375 166.913C95.2838 167.649 96.5796 168.12 97.931 168.293C99.2823 168.466 100.655 168.336 101.95 167.913C102.75 167.35 103.05 166.125 102.837 164.275L102.65 162.575L104.3 162.125C104.79 162.003 105.287 161.911 105.787 161.85C106.124 161.811 106.458 161.752 106.787 161.675L109.437 160.95L109.312 163.688C109.05 169.388 107.8 170.825 104.8 172.963C105.581 179.039 104.944 185.213 102.937 191.002C100.931 196.79 97.6112 202.035 93.2375 206.325C93.2401 207.39 93.3872 208.45 93.675 209.475L95.4 217.388ZM86.65 204.787C87.5588 205.078 88.4378 205.455 89.275 205.912C89.3126 205.487 89.4007 205.067 89.5375 204.662L89.675 204.262L89.9625 203.95C91.0292 202.808 92.0167 201.663 92.925 200.513C91.0046 202.174 88.899 203.608 86.65 204.787Z" fill="#090E16"/>
<path d="M276.962 290.162C276.65 285.45 276.075 281.313 275.937 276.588C275.625 265.763 267.4 263.4 266.95 274.225C266.7 279.9 266.95 285.25 266.95 290.6C270.287 291.056 273.678 290.908 276.962 290.162Z" fill="#7B4AE2" fill-opacity="0.5"/>
<path d="M271.737 291.5C270.487 291.5 269.312 291.425 268.125 291.35L266.25 291.25V290.625C266.25 288.85 266.25 287.088 266.25 285.313C266.25 281.738 266.137 278.037 266.25 274.225C266.487 268.562 268.75 266.55 270.762 266.55C273.425 266.55 276.35 270.088 276.55 276.55C276.625 279.438 276.875 282.075 277.125 284.862C277.287 286.562 277.437 288.288 277.562 290.088V290.625L277.05 290.775C275.322 291.266 273.534 291.51 271.737 291.5ZM267.625 290H268.225C270.906 290.315 273.621 290.193 276.262 289.637C276.15 288.037 276 286.5 275.862 284.987C275.6 282.175 275.362 279.525 275.275 276.588C275.112 271.2 272.775 267.837 270.812 267.837C269.462 267.837 267.825 269.512 267.625 274.237C267.45 277.987 267.512 281.737 267.625 285.25C267.6 286.85 267.625 288.413 267.625 290Z" fill="#090E16"/>
<path d="M267.1 290.712C266.193 285.275 265.853 279.758 266.088 274.25C266.788 264.25 257.338 253.712 256.7 272.275C256.469 277.7 256.682 283.135 257.338 288.525C260.53 289.506 263.794 290.237 267.1 290.712Z" fill="#7B4AE2" fill-opacity="0.5"/>
<path d="M267.863 291.512L267 291.375C263.656 290.906 260.354 290.175 257.125 289.187L256.725 289.05V288.637C256.063 283.206 255.85 277.729 256.088 272.262C256.288 266.275 257.338 262.725 259.375 261.7C259.84 261.468 260.362 261.372 260.879 261.422C261.396 261.473 261.889 261.669 262.3 261.987C263.935 263.564 265.191 265.492 265.973 267.625C266.755 269.757 267.042 272.04 266.813 274.3C266.531 279.127 266.761 283.971 267.5 288.75L267.863 291.512ZM257.938 288.05C260.687 288.867 263.489 289.493 266.325 289.925L266.2 288.887C265.427 284.037 265.164 279.118 265.413 274.212C265.624 272.186 265.383 270.138 264.707 268.216C264.03 266.294 262.935 264.547 261.5 263.1C261.286 262.917 261.024 262.799 260.745 262.759C260.466 262.719 260.182 262.76 259.925 262.875C259.238 263.225 257.613 264.862 257.35 272.3C257.126 277.557 257.322 282.824 257.938 288.05Z" fill="#090E16"/>
<path d="M257.35 289.375L256.013 268.125C255.05 252.263 248.675 254.113 248.163 267.175C247.913 273.35 248.413 276.725 247.838 282.912C250.838 284.95 253.963 288.962 257.35 289.287V289.375Z" fill="#7B4AE2" fill-opacity="0.5"/>
<path d="M257.288 290C254.613 289.347 252.196 287.905 250.35 285.862C249.439 285.023 248.479 284.238 247.475 283.512L247.15 283.287V282.9C247.411 279.908 247.499 276.903 247.413 273.9C247.413 271.875 247.413 269.787 247.413 267.2C247.675 260.537 249.438 256.213 251.9 256.188C254.4 256.188 256.125 260.65 256.575 268.137L257.913 289.387H257.238L257.288 290ZM248.538 282.637C249.438 283.287 250.338 284.087 251.225 284.862C252.754 286.441 254.593 287.688 256.625 288.525L255.375 268.225C254.9 260.362 253.113 257.525 252.025 257.525C250.9 257.525 249.113 260.637 248.863 267.262C248.75 269.762 248.788 271.9 248.863 273.9C248.912 276.808 248.803 279.716 248.538 282.612V282.637Z" fill="#090E16"/>
<path d="M148.312 300.35C148.482 295.375 148.227 290.394 147.55 285.462C144.875 273.962 141.5 272.55 137.55 281.05V300.15C141.123 300.639 144.742 300.681 148.325 300.275L148.312 300.35Z" fill="#7B4AE2" fill-opacity="0.5"/>
<path d="M144.275 301.25C142.2 301.25 140.125 301.063 138.088 300.875L136.838 300.763V280.763C138.75 276.65 140.588 274.738 142.438 274.938C144.713 275.175 146.513 278.463 148.1 285.3L148.225 286.388C148.841 291.019 149.062 295.694 148.888 300.363H148.238L148.325 300.938C146.985 301.148 145.631 301.252 144.275 301.25ZM138.2 299.55C141.339 299.952 144.512 300.007 147.663 299.713C147.787 295.314 147.561 290.913 146.988 286.55L146.875 285.538C145.05 277.7 143.275 276.363 142.388 276.275C141.7 276.275 140.288 276.763 138.2 281.213V299.55Z" fill="#090E16"/>
<path d="M128.75 297.2C128.812 289.875 128.875 285.025 128.875 277.7C131.55 266.925 134.287 268.012 136.962 280.95C137.025 287.9 137.087 292.425 137.087 299.362C134.161 299.248 131.293 298.511 128.675 297.2H128.75Z" fill="#7B4AE2" fill-opacity="0.5"/>
<path d="M137.712 300.113L136.587 299.988C133.699 299.848 130.874 299.093 128.3 297.775L126.112 296.525H128.037V292.775C128.037 287.65 128.125 283.413 128.125 277.638V277.475C129.475 272.05 130.8 269.625 132.437 269.625C133.687 269.625 135.45 270.937 137.437 280.75V285.075C137.437 289.888 137.525 293.825 137.525 299.312L137.712 300.113ZM129.375 296.838C131.577 297.874 133.958 298.476 136.387 298.613C136.387 293.538 136.387 289.725 136.3 285.138V280.95C134.337 271.538 132.837 271.025 132.55 271.025C132.262 271.025 131.187 271.175 129.537 277.775C129.537 283.513 129.537 287.775 129.45 292.85L129.375 296.838Z" fill="#090E16"/>
<path d="M118.75 282.787C119.138 276.662 120.413 270.475 120.788 264.35C118.288 252.225 115.563 250.063 112.7 257.975C112.575 265.825 112.513 273.738 112.388 281.588C114.279 282.794 116.556 283.24 118.763 282.838L118.75 282.787Z" fill="#7B4AE2" fill-opacity="0.5"/>
<path d="M117.163 283.75C115.636 283.671 114.148 283.244 112.813 282.5L111.763 282.025V281.587C111.829 277.662 111.883 273.729 111.925 269.787C111.967 265.846 112.021 261.908 112.088 257.975V257.762C113.338 254.175 114.663 252.562 116.163 252.662C117.663 252.762 119.4 254.175 121.463 264.237V264.412C121.275 267.5 120.85 270.662 120.438 273.675C120.025 276.687 119.613 279.8 119.425 282.825V283.4L118.9 283.512C118.331 283.651 117.748 283.731 117.163 283.75ZM113.113 281.25L113.363 281.363C114.809 282.227 116.502 282.587 118.175 282.387C118.375 279.45 118.775 276.462 119.175 273.575C119.575 270.687 119.988 267.5 120.188 264.487C118.225 254.95 116.575 254.1 116.113 254.063C115.863 254.063 114.863 254.275 113.425 258.188C113.358 262.071 113.304 265.967 113.263 269.875C113.221 273.783 113.171 277.542 113.113 281.15V281.25Z" fill="#090E16"/>
<path d="M237.763 280.85C238.275 274.337 237.575 268.912 237.763 262.537C237.95 254.812 245.588 257.05 245.913 264.137C246.238 271.225 246.613 274.862 247 281.937C243.905 282.461 240.724 282.084 237.838 280.85H237.763Z" fill="#7B4AE2" fill-opacity="0.5"/>
<path d="M243.288 282.725C241.333 282.793 239.393 282.363 237.65 281.475H237.1V280.763C237.324 277.283 237.349 273.794 237.175 270.313C237.1 267.813 237.013 265.225 237.1 262.488C237.2 258.463 239.188 257.013 241.013 257C243.513 257 246.35 259.687 246.538 264.075C246.725 267.688 246.913 270.325 247.088 273.088C247.263 275.85 247.438 278.375 247.625 281.838V282.513L245.688 282.588C244.9 282.688 244.088 282.725 243.288 282.725ZM238.45 280.425C240.738 281.371 243.238 281.682 245.688 281.325H246.288C246.113 278.163 245.95 275.688 245.788 273.225C245.613 270.513 245.438 267.813 245.238 264.188C245.038 260.563 242.95 258.375 241.038 258.375C239.475 258.375 238.538 259.963 238.438 262.575C238.338 265.188 238.438 267.838 238.513 270.325C238.667 273.69 238.646 277.062 238.45 280.425Z" fill="#090E16"/>
<path d="M237.362 281.087C237.175 276.312 237.237 270.575 237.05 265.8C237.5 259.237 232.975 249.55 231.2 260.325C230.636 264.315 230.298 268.334 230.188 272.362C232.248 275.528 234.654 278.455 237.362 281.087Z" fill="#7B4AE2"/>
<path d="M238.075 282.438L236.963 281.638C234.763 279.698 232.841 277.464 231.25 275C230.65 274.163 230.1 273.4 229.65 272.825L229.488 272.625V272.375C229.575 271.125 229.638 269.875 229.688 268.875C229.782 265.994 230.057 263.121 230.513 260.275C230.738 258.875 231.438 254.625 233.675 254.9C236.175 255.2 237.963 261.875 237.688 265.9C237.788 268.225 237.813 270.9 237.85 273.488C237.888 276.075 237.913 278.738 238.013 281.113L238.075 282.438ZM230.85 272.163C231.288 272.725 231.788 273.413 232.338 274.188C233.633 276.101 235.074 277.91 236.65 279.6C236.65 277.625 236.563 275.513 236.538 273.463C236.538 270.888 236.475 268.213 236.375 265.838C236.688 261.188 234.625 256.3 233.538 256.175C233.3 256.1 232.438 256.85 231.838 260.438C231.39 263.234 231.118 266.057 231.025 268.888C230.975 269.888 230.925 270.95 230.85 272.15V272.163Z" fill="#090E16"/>
<path d="M180.537 193.237C183.787 177.737 186.975 162.238 190.225 146.675C190.738 143.038 191.687 139.787 195.512 139.462H200.163C202.963 139.462 204.563 141.125 204.813 144.463L203.862 151.35C203.987 154.162 205.713 155.75 209.15 156.012C213.8 156.2 218.525 156.462 223.175 156.65C230.188 157.1 234.9 160.1 234.425 168.837C232.962 176.55 231.488 184.275 230.025 191.925C229.945 193.709 229.34 195.429 228.286 196.87C227.232 198.311 225.776 199.409 224.1 200.025C222 199.9 219.637 200.15 217.537 200.025C213.9 200.213 211.8 198.875 213.138 194.088C214.475 188.025 216.137 180.437 217.537 174.375C218.05 167.162 215.375 166.787 212.538 166.275C210.113 165.95 207.763 166.275 205.338 165.95C201.762 166.462 200.425 169.9 199.412 173.738C197.887 180.175 196.288 186.625 194.763 193.125C194.063 196.637 193.3 198.925 190.687 200.012H182.913C179.979 199.371 179.146 197.075 180.412 193.125L180.537 193.237Z" fill="#090E16"/>
<path d="M218.862 201.375C218.4 201.375 217.95 201.375 217.5 201.375C216.561 201.533 215.598 201.46 214.694 201.161C213.79 200.863 212.973 200.348 212.312 199.662C211.759 198.79 211.426 197.796 211.341 196.766C211.256 195.736 211.422 194.701 211.825 193.75L212.587 190.275C213.75 185 215.087 179.112 216.187 174.2C216.575 168.387 215.012 168.1 212.437 167.625C210.112 167.312 207.875 167.625 205.375 167.325C202.875 167.775 201.737 170.263 200.712 174.1C200.037 176.938 199.337 179.825 198.637 182.712C197.775 186.287 196.912 189.863 196.062 193.463C195.212 197.063 194.525 199.887 191.2 201.275L190.95 201.375H182.625C181.918 201.259 181.244 200.993 180.648 200.594C180.053 200.195 179.551 199.673 179.175 199.063C178.738 198.079 178.512 197.014 178.512 195.938C178.512 194.861 178.738 193.796 179.175 192.813L179.587 191.562C181.254 183.487 182.921 175.408 184.587 167.325C186.021 160.408 187.458 153.488 188.9 146.563C189.25 144.063 189.987 138.75 195.387 138.3H200.15C202.2 138.3 205.712 139.1 206.125 144.55V144.687L205.162 151.587C205.25 153 205.837 154.613 209.212 154.863L216.225 155.175L223.187 155.488C224.967 155.321 226.761 155.568 228.429 156.209C230.097 156.85 231.595 157.868 232.805 159.183C234.015 160.499 234.905 162.076 235.405 163.792C235.905 165.507 236.001 167.316 235.687 169.075V169.25C234.225 176.975 232.75 184.687 231.287 192.35C231.164 194.363 230.456 196.296 229.251 197.912C228.045 199.529 226.394 200.758 224.5 201.45L224.25 201.537H223.975C222.987 201.537 221.925 201.537 220.812 201.537C220.175 201.35 219.512 201.375 218.862 201.375ZM217.512 198.675H217.587C218.575 198.675 219.637 198.675 220.75 198.675C221.862 198.675 222.85 198.675 223.875 198.675C225.261 198.099 226.452 197.137 227.306 195.902C228.159 194.667 228.639 193.213 228.687 191.713C230.154 184.046 231.617 176.363 233.075 168.663C233.462 161.638 230.475 158.437 223.075 157.975L216.125 157.663L209.087 157.338C203.587 156.925 202.612 153.45 202.525 151.413V151.25L203.475 144.387C203.187 141.187 201.55 140.775 200.162 140.775H195.512C193.212 140.975 192.137 142.562 191.537 146.837C190.075 153.862 188.637 160.775 187.2 167.688C185.417 176.296 183.625 184.896 181.825 193.488L181.325 195.9L181.175 195.75C181.08 196.394 181.181 197.051 181.462 197.637C181.641 197.906 181.873 198.134 182.144 198.308C182.415 198.483 182.719 198.599 183.037 198.65H190.375C192.162 197.8 192.775 196.15 193.425 192.825C194.287 189.175 195.15 185.587 196.012 182.012C196.712 179.129 197.404 176.25 198.087 173.375C198.85 170.525 200.237 165.275 205.125 164.625H205.3H205.487C207.762 164.925 210.137 164.625 212.687 164.95H212.862C216.437 165.6 219.35 166.763 218.812 174.438V174.65C217.675 179.575 216.312 185.5 215.2 190.8L214.412 194.35C213.912 196.138 213.912 197.363 214.412 197.963C214.912 198.563 216.375 198.725 217.45 198.675H217.512Z" fill="#7B4AE2"/>
<path d="M120.3 211.175C123.488 194.65 126.738 178.125 129.938 161.663C129.896 160.915 130.013 160.166 130.28 159.466C130.547 158.767 130.959 158.131 131.489 157.601C132.019 157.072 132.654 156.66 133.354 156.392C134.054 156.125 134.802 156.008 135.55 156.05H164.9C167.697 155.967 170.463 156.649 172.901 158.021C175.339 159.393 177.357 161.404 178.738 163.838C180.702 167.395 181.527 171.471 181.1 175.513C180.472 182.452 177.397 188.943 172.425 193.825C168.353 197.263 163.365 199.436 158.075 200.075C153.075 200.2 148.075 200.263 143.075 200.4C140.2 200.15 137.338 200.913 136.638 203.213C135.75 206.338 135.113 209.463 134.213 212.525C133.9 213.215 133.443 213.829 132.871 214.325C132.299 214.821 131.627 215.188 130.9 215.4C128.025 215.463 125.1 215.463 122.225 215.525C119.15 215.575 119.788 213.75 120.3 211.175ZM140.775 182.85C141.6 178.513 142.625 173.6 143.388 169.775C143.795 168.629 144.561 167.645 145.572 166.97C146.583 166.294 147.786 165.963 149 166.025C152.026 165.81 155.064 166.201 157.938 167.175C159.195 167.683 160.331 168.452 161.269 169.432C162.207 170.412 162.926 171.58 163.379 172.859C163.832 174.137 164.008 175.498 163.895 176.85C163.782 178.201 163.383 179.514 162.725 180.7C161.613 182.788 160.1 184.636 158.273 186.137C156.445 187.639 154.339 188.765 152.075 189.45C149.996 189.993 147.845 190.208 145.7 190.088C140.213 189.513 139.763 188.05 140.7 182.813L140.775 182.85Z" fill="#090E16"/>
<path d="M122.075 216.85C121.543 216.904 121.005 216.836 120.503 216.652C120.001 216.468 119.547 216.172 119.175 215.788C118.225 214.65 118.55 213.113 118.887 211.488L119 210.925C120.758 201.825 122.529 192.725 124.312 183.625C125.746 176.275 127.175 168.933 128.6 161.6C128.546 160.738 128.672 159.874 128.969 159.063C129.266 158.252 129.727 157.511 130.325 156.887C131.004 156.175 131.826 155.614 132.738 155.241C133.649 154.869 134.629 154.693 135.613 154.725H164.9C167.94 154.632 170.948 155.377 173.593 156.878C176.239 158.38 178.421 160.58 179.9 163.238C181.973 167.012 182.845 171.329 182.4 175.612C181.748 182.867 178.541 189.654 173.35 194.763L173.2 194.9C168.94 198.484 163.727 200.748 158.2 201.413C155.625 201.488 153.113 201.525 150.613 201.575L143.113 201.737H142.963C140.95 201.562 138.412 201.937 137.962 203.612C137.512 205.287 137.15 206.663 136.713 208.2C136.275 209.738 135.938 211.325 135.463 212.913C135.11 213.804 134.56 214.605 133.854 215.254C133.149 215.903 132.305 216.385 131.387 216.663L131.15 216.762H130.9L126.588 216.825L122.225 216.888L122.075 216.85ZM121.238 214.1C121.547 214.183 121.868 214.212 122.187 214.188L126.588 214.125H130.613C131.963 213.525 132.737 212.875 132.95 212.2C133.387 210.663 133.763 209.138 134.2 207.6C134.638 206.063 134.975 204.475 135.45 202.9C136.263 200.225 139.2 198.788 143.213 199.15L150.637 198.987L158.138 198.825C163.114 198.192 167.802 196.134 171.638 192.9C176.348 188.252 179.266 182.09 179.875 175.5C180.282 171.696 179.505 167.859 177.65 164.513C176.354 162.306 174.489 160.488 172.251 159.248C170.013 158.008 167.483 157.392 164.925 157.463H135.55C134.938 157.438 134.328 157.544 133.761 157.775C133.194 158.006 132.683 158.355 132.263 158.8C131.901 159.17 131.624 159.614 131.451 160.102C131.278 160.59 131.214 161.11 131.263 161.625V161.812V162C129.829 169.392 128.388 176.796 126.938 184.213C125.163 193.304 123.392 202.404 121.625 211.512L121.5 212.1C121.31 212.775 121.225 213.475 121.25 214.175L121.238 214.1ZM146.888 191.45C146.45 191.45 146.013 191.45 145.563 191.45C144.508 191.476 143.458 191.291 142.475 190.907C141.492 190.523 140.595 189.947 139.838 189.213C138.725 187.725 138.825 185.75 139.4 182.613L139.85 180.113L139.937 180.2C140.375 177.963 140.85 175.663 141.288 173.5L142.2 169.212C142.718 167.824 143.668 166.637 144.91 165.828C146.152 165.018 147.62 164.627 149.1 164.713C152.257 164.501 155.423 164.926 158.413 165.963C159.732 166.436 160.939 167.18 161.955 168.146C162.971 169.113 163.774 170.28 164.313 171.575C164.907 173.134 165.18 174.796 165.116 176.463C165.051 178.13 164.651 179.767 163.938 181.275L163.85 181.438C162.657 183.662 161.037 185.63 159.083 187.228C157.129 188.826 154.88 190.023 152.462 190.75C150.631 191.186 148.757 191.421 146.875 191.45H146.888ZM141.725 185.05C141.529 185.889 141.622 186.77 141.988 187.55C142.425 188.125 143.65 188.5 145.838 188.738C147.84 188.837 149.847 188.63 151.787 188.125C153.865 187.489 155.796 186.449 157.472 185.066C159.147 183.682 160.533 181.982 161.55 180.062C162.098 178.896 162.409 177.632 162.462 176.344C162.516 175.056 162.312 173.771 161.863 172.563C161.457 171.607 160.858 170.746 160.103 170.033C159.348 169.321 158.453 168.773 157.475 168.425C154.766 167.512 151.901 167.15 149.05 167.362C148.104 167.285 147.16 167.525 146.367 168.046C145.574 168.567 144.979 169.339 144.675 170.238L143.912 173.987C143.312 176.937 142.663 180.15 142.1 183.1L141.725 185.05Z" fill="#7B4AE2"/>
<path d="M231.812 211.175C235 194.65 238.25 178.125 241.45 161.663C241.408 160.915 241.525 160.166 241.792 159.466C242.06 158.767 242.472 158.131 243.001 157.601C243.531 157.072 244.167 156.66 244.866 156.392C245.566 156.125 246.315 156.008 247.062 156.05H276.412C279.209 155.967 281.975 156.649 284.413 158.021C286.851 159.393 288.869 161.404 290.25 163.838C292.215 167.395 293.04 171.471 292.612 175.513C291.984 182.452 288.91 188.943 283.937 193.825C279.866 197.263 274.878 199.436 269.587 200.075C264.587 200.2 259.587 200.263 254.587 200.4C251.712 200.15 248.85 200.913 248.15 203.213C247.262 206.338 246.625 209.463 245.725 212.525C245.413 213.215 244.955 213.829 244.383 214.325C243.812 214.821 243.139 215.188 242.412 215.4C239.537 215.463 236.612 215.463 233.737 215.525C230.662 215.575 231.25 213.75 231.812 211.175ZM252.287 182.85C253.112 178.513 254.137 173.6 254.9 169.775C255.307 168.629 256.074 167.645 257.085 166.97C258.096 166.294 259.298 165.963 260.512 166.025C263.538 165.81 266.577 166.201 269.45 167.175C270.708 167.683 271.843 168.452 272.782 169.432C273.72 170.412 274.439 171.58 274.892 172.859C275.344 174.137 275.52 175.498 275.407 176.85C275.294 178.201 274.896 179.514 274.237 180.7C273.126 182.788 271.613 184.636 269.785 186.137C267.958 187.639 265.851 188.765 263.587 189.45C261.509 189.993 259.358 190.208 257.212 190.088C251.725 189.513 251.275 188.05 252.212 182.813L252.287 182.85Z" fill="#090E16"/>
<path d="M233.587 216.85C233.055 216.903 232.518 216.835 232.016 216.651C231.514 216.467 231.06 216.172 230.687 215.788C229.737 214.65 230.062 213.113 230.4 211.488L230.512 210.925C232.262 201.85 234.025 192.783 235.8 183.725C237.242 176.342 238.679 168.967 240.112 161.6C240.059 160.738 240.184 159.874 240.481 159.063C240.778 158.252 241.24 157.511 241.837 156.887C242.517 156.175 243.339 155.614 244.25 155.241C245.161 154.869 246.141 154.693 247.125 154.725H276.412C279.453 154.632 282.46 155.377 285.106 156.878C287.751 158.38 289.933 160.58 291.412 163.238C293.485 167.012 294.357 171.329 293.912 175.612C293.26 182.866 290.053 189.653 284.862 194.763L284.712 194.9C280.453 198.484 275.24 200.748 269.712 201.413C267.137 201.488 264.625 201.525 262.125 201.575L254.625 201.737H254.475C252.45 201.562 249.925 201.937 249.475 203.612C249.025 205.287 248.662 206.663 248.225 208.188C247.787 209.713 247.45 211.325 246.975 212.9C246.622 213.792 246.072 214.592 245.367 215.242C244.661 215.891 243.818 216.372 242.9 216.65L242.662 216.75H242.412L238.1 216.812L233.737 216.875L233.587 216.85ZM232.75 214.1C233.06 214.18 233.381 214.21 233.7 214.188L238.1 214.125H242.125C243.475 213.525 244.25 212.875 244.462 212.2C244.9 210.663 245.287 209.125 245.712 207.6C246.137 206.075 246.487 204.487 246.962 202.912C247.775 200.237 250.712 198.8 254.725 199.162L262.15 199L269.65 198.837C274.627 198.204 279.315 196.147 283.15 192.912C287.861 188.265 290.778 182.102 291.387 175.513C291.795 171.708 291.018 167.871 289.162 164.525C287.866 162.319 286.002 160.501 283.763 159.261C281.525 158.021 278.995 157.404 276.437 157.475H247.062C246.451 157.449 245.84 157.555 245.273 157.785C244.706 158.016 244.195 158.366 243.775 158.812C243.413 159.182 243.136 159.627 242.963 160.115C242.791 160.603 242.726 161.122 242.775 161.637V161.825V162.013C241.333 169.438 239.887 176.875 238.437 184.325C236.671 193.383 234.908 202.45 233.15 211.525L233.025 212.113C232.835 212.787 232.75 213.487 232.775 214.188L232.75 214.1ZM258.4 191.45C257.962 191.45 257.525 191.45 257.075 191.45C256.02 191.476 254.97 191.291 253.987 190.907C253.005 190.523 252.108 189.947 251.35 189.213C250.237 187.725 250.337 185.75 250.912 182.613L251.362 180.113L251.45 180.2C251.887 177.95 252.362 175.637 252.8 173.462L253.712 169.2C254.226 167.808 255.174 166.618 256.417 165.807C257.66 164.997 259.131 164.608 260.612 164.7C263.769 164.492 266.935 164.917 269.925 165.95C271.245 166.423 272.451 167.167 273.467 168.134C274.483 169.1 275.286 170.268 275.825 171.563C276.419 173.121 276.693 174.784 276.628 176.451C276.564 178.118 276.163 179.754 275.45 181.263L275.362 181.425C274.17 183.65 272.55 185.617 270.596 187.215C268.642 188.813 266.392 190.01 263.975 190.737C262.148 191.177 260.279 191.416 258.4 191.45ZM253.225 185.063C253.029 185.902 253.122 186.782 253.487 187.563C253.925 188.138 255.15 188.513 257.337 188.75C259.34 188.849 261.347 188.643 263.287 188.137C265.365 187.501 267.296 186.462 268.972 185.078C270.647 183.695 272.033 181.995 273.05 180.075C273.598 178.909 273.909 177.644 273.962 176.356C274.016 175.069 273.812 173.783 273.362 172.575C272.957 171.619 272.358 170.758 271.603 170.046C270.848 169.334 269.953 168.786 268.975 168.438C266.266 167.523 263.401 167.162 260.55 167.375C259.605 167.299 258.661 167.541 257.869 168.062C257.077 168.582 256.481 169.352 256.175 170.25L255.412 174C254.812 176.963 254.162 180.188 253.6 183.138L253.225 185.063Z" fill="#7B4AE2"/>
<path d="M42.8125 286.325C41.3178 284.89 40.053 283.233 39.0625 281.413C37.5198 278.604 36.7722 275.427 36.9 272.225C33.65 216.812 36.5125 168.35 54.175 128.75C56.3375 123.9 56.675 122.437 61.1875 120.2C74.9733 115.145 89.7612 113.432 104.338 115.2C104.788 113.95 105.675 112.7 105.288 111.45C92.0964 110.394 78.8213 111.449 65.9625 114.575C57.2125 115.975 48.6875 117.512 46.5875 131.412C28.9375 178.15 30.2125 222.412 32.05 265.9C32.0368 269.037 32.5091 272.157 33.45 275.15C36.8875 286.112 40.2125 285.738 42.825 286.313L42.8125 286.325Z" fill="#7B4AE2"/>
<path d="M110.6 279.387C110.6 267.85 109.65 256.312 109.65 244.725C109.183 238.113 107.747 231.606 105.388 225.413C102.831 220.907 99.9041 216.621 96.6375 212.6C106.569 231.474 109.661 253.205 105.388 274.1C107.163 275.875 108.75 277.662 110.6 279.387Z" fill="#7B4AE2"/>
<path d="M111.55 281.675L110.662 281.338C107.327 279.904 104.467 277.555 102.412 274.563L101.55 273.475H102.362C102.55 269.338 102.475 265.55 102.362 261.875C102.287 258 102.2 254 102.425 249.6V248.863L103.162 248.975C105.202 249.173 107.128 250.002 108.674 251.346C110.22 252.69 111.308 254.483 111.787 256.475V256.575V256.675C111.725 260.975 111.675 264.8 111.625 268.613C111.575 272.425 111.525 276.388 111.462 280.738L111.55 281.675ZM103.662 274C105.38 276.392 107.631 278.352 110.237 279.725C110.237 275.775 110.337 272.225 110.387 268.588C110.387 264.838 110.487 261 110.55 256.75C110.162 255.146 109.31 253.692 108.101 252.57C106.891 251.447 105.378 250.706 103.75 250.438C103.575 254.488 103.65 258.225 103.75 261.85C103.75 265.688 103.875 269.65 103.662 274Z" fill="#090E16"/>
<path d="M128.15 295.712C125.543 294.683 123.347 292.825 121.9 290.425C121.45 269.825 121.063 249.175 120.65 228.562L123.788 231.687C124.49 236.03 124.812 240.426 124.75 244.825L125.713 247.325C125.695 263.485 126.508 279.636 128.15 295.712Z" fill="#7B4AE2"/>
<path d="M129.188 300.288L128.313 300C124.677 298.72 121.667 296.1 119.9 292.675L119.812 292.5V292.25C119.812 285.387 119.938 278.288 119.938 271.338V271.163L120.025 271.012C121.913 267.575 123.537 265.362 125.312 265.713C126.7 265.988 128.263 267.6 129.313 277.4C129.313 284.687 129.188 292.113 129.188 299.375V300.288ZM121.15 292.162C122.625 294.938 124.989 297.139 127.863 298.412C127.863 291.45 127.925 284.362 127.988 277.487C127.013 268.375 125.613 267.125 125.063 267.013C124.513 266.9 123.437 267.6 121.312 271.5C121.25 278.375 121.25 285.388 121.15 292.175V292.162Z" fill="#090E16"/>
<path d="M106.25 225.712C106.289 224.652 106.136 223.594 105.8 222.587C106.312 222.712 106.825 222.775 107.325 222.913L115.412 229.487C116.539 229.01 117.435 228.114 117.912 226.988C118.424 226.98 118.931 227.088 119.394 227.304C119.857 227.521 120.265 227.84 120.587 228.238C120.712 233.475 120.337 238.638 120.462 243.863C121.302 244.579 121.845 245.581 121.987 246.675C125.336 246.809 128.675 247.13 131.987 247.638C132.175 248.463 132.437 248.975 132.625 249.813C128.887 249.393 125.113 249.393 121.375 249.813V252.175C124.307 252.025 127.246 252.239 130.125 252.813C130.25 253.513 130.312 253.838 130.437 254.538C127.325 254.164 124.177 254.206 121.075 254.662C121.462 267.55 121.587 280.313 121.075 293.263C120.05 290.838 118.087 288.475 117 286.05C118.941 269.552 119.196 252.9 117.762 236.35C114.797 231.964 110.857 228.323 106.25 225.712Z" fill="#090E16"/>
<path d="M119.3 294.05C118.746 292.859 118.098 291.713 117.362 290.625C116.566 289.427 115.856 288.174 115.237 286.875L115 286.363L115.075 285.8C116.97 269.617 117.229 253.285 115.85 237.05C113.027 233.129 109.395 229.859 105.2 227.463L104.075 226.738L104.325 225.413C104.33 224.932 104.254 224.455 104.1 224C104.012 223.663 103.937 223.338 103.875 223.013L103.3 219.95L106.325 220.7L106.975 220.838C107.262 220.838 107.562 220.95 107.85 221.025L108.275 221.138L115.575 227.063C115.789 226.864 115.955 226.621 116.062 226.35L116.55 225.1H117.937C118.773 225.094 119.599 225.284 120.348 225.655C121.097 226.026 121.749 226.568 122.25 227.238L122.587 227.725V228.325C122.65 230.988 122.587 233.663 122.525 236.238C122.525 238.525 122.412 240.888 122.45 243.213C122.882 243.706 123.243 244.257 123.525 244.85C125.6 244.938 127.65 245.213 129.65 245.463L132.225 245.775L133.625 245.938L133.937 247.313C134.01 247.617 134.097 247.917 134.2 248.213C134.325 248.6 134.462 249 134.575 249.463L135.187 252.113L132.475 251.9H131.987L132.9 256.9L130.262 256.625C127.901 256.354 125.519 256.316 123.15 256.513C123.55 270.763 123.525 282.538 123.15 293.438L119.3 294.05ZM119.125 285.75L119.362 286.2C119.362 285.3 119.362 284.388 119.362 283.463C119.304 284.229 119.225 284.992 119.125 285.75ZM116.437 231.25C117.228 232.094 117.959 232.992 118.625 233.938C118.625 232.5 118.625 231.05 118.625 229.613C117.999 230.284 117.258 230.838 116.437 231.25Z" fill="#090E16"/>
<path d="M114.013 112.05C119.779 111.292 125.335 109.384 130.35 106.437C140.293 100.87 151.383 97.6623 162.763 97.0625C158.054 94.9361 152.758 94.4948 147.763 95.8125C135.495 98.7899 123.995 104.323 114.013 112.05Z" fill="#7B4AE2"/>
<path d="M176.425 105.125C203.797 97.2452 232.999 98.5626 259.55 108.875C233.448 97.4045 204.156 95.4278 176.75 103.287C176.737 104.562 176.425 103.925 176.425 105.125Z" fill="#7B4AE2"/>
</svg>
