<svg width="64" height="64" viewBox="0 0 64 64" fill="none" xmlns="http://www.w3.org/2000/svg">
<path d="M52.6208 21.9554C51.9569 21.7269 51.269 21.5107 50.5606 21.3062C50.677 20.831 50.7839 20.362 50.8789 19.901C52.4385 12.3307 51.4188 6.23207 47.9368 4.22413C44.5981 2.29879 39.1378 4.30627 33.6232 9.10546C33.0929 9.56694 32.5612 10.0555 32.0296 10.5676C31.6754 10.2288 31.3218 9.90141 30.9691 9.58825C25.1897 4.45664 19.3967 2.29412 15.9181 4.30787C12.5826 6.23879 11.5948 11.9721 12.9986 19.1465C13.1342 19.8395 13.2927 20.5472 13.4718 21.2667C12.652 21.4994 11.8605 21.7475 11.1031 22.0115C4.32733 24.3738 0 28.0762 0 31.9165C0 35.8828 4.64539 39.8611 11.7029 42.2734C12.2599 42.4637 12.8378 42.6437 13.4333 42.8146C13.24 43.5928 13.0719 44.3553 12.9307 45.0991C11.5922 52.149 12.6375 57.7469 15.9642 59.6656C19.4003 61.6471 25.1671 59.6104 30.7825 54.7018C31.2264 54.3138 31.6718 53.9023 32.118 53.471C32.6964 54.028 33.2738 54.5551 33.8482 55.0495C39.2874 59.7301 44.6595 61.6201 47.9831 59.696C51.4158 57.7088 52.5314 51.6954 51.083 44.379C50.9724 43.8203 50.8437 43.2494 50.6991 42.6684C51.1041 42.5487 51.5017 42.4251 51.8894 42.2966C59.2263 39.8657 64 35.9358 64 31.9165C64 28.0623 59.5331 24.335 52.6208 21.9554ZM51.0295 39.7014C50.6796 39.8173 50.3205 39.9292 49.9546 40.0378C49.1446 37.4736 48.0514 34.7469 46.7137 31.9298C47.9903 29.1798 49.0412 26.488 49.8285 23.9405C50.4832 24.1299 51.1186 24.3297 51.7309 24.5406C57.6533 26.5794 61.2659 29.5938 61.2659 31.9165C61.2659 34.3906 57.3644 37.6023 51.0295 39.7014ZM48.4009 44.91C49.0414 48.1452 49.1329 51.0702 48.7086 53.3568C48.3275 55.4114 47.5609 56.7813 46.6131 57.3299C44.5962 58.4974 40.2829 56.9799 35.6313 52.977C35.098 52.5181 34.5609 52.0281 34.0221 51.5096C35.8254 49.5373 37.6277 47.2444 39.3867 44.698C42.4807 44.4235 45.4037 43.9746 48.0545 43.3619C48.1851 43.8885 48.301 44.405 48.4009 44.91ZM21.819 57.1282C19.8485 57.8241 18.279 57.8441 17.3303 57.297C15.3115 56.1326 14.4723 51.6381 15.6171 45.609C15.7482 44.9186 15.9043 44.2093 16.0841 43.4843C18.7059 44.064 21.6075 44.4812 24.7088 44.7326C26.4797 47.2244 28.3341 49.5147 30.2028 51.5202C29.7945 51.9143 29.3878 52.2896 28.9834 52.6432C26.5003 54.8137 24.012 56.3536 21.819 57.1282ZM12.5872 39.6863C9.46645 38.6196 6.88926 37.2333 5.12272 35.7206C3.53537 34.3612 2.73395 33.0116 2.73395 31.9165C2.73395 29.5861 6.20836 26.6136 12.0031 24.5932C12.7062 24.3481 13.4422 24.117 14.2061 23.9C15.0069 26.5051 16.0575 29.2288 17.3253 31.983C16.0411 34.7782 14.9756 37.5453 14.1669 40.1809C13.6223 40.0244 13.0948 39.8596 12.5872 39.6863ZM15.6818 18.6215C14.479 12.4746 15.2778 7.83765 17.2879 6.67408C19.429 5.43453 24.1636 7.20187 29.1537 11.6328C29.4727 11.916 29.7929 12.2124 30.1141 12.519C28.2546 14.5157 26.4172 16.7888 24.662 19.2659C21.652 19.5449 18.7708 19.993 16.1217 20.5932C15.9552 19.9232 15.8076 19.265 15.6818 18.6215ZM43.2885 25.4383C42.6552 24.3444 42.0051 23.2764 41.3423 22.2376C43.3843 22.4957 45.3407 22.8384 47.178 23.2577C46.6264 25.0255 45.9389 26.8739 45.1296 28.7687C44.5491 27.6665 43.9351 26.5552 43.2885 25.4383ZM32.0305 14.473C33.2916 15.8392 34.5545 17.3646 35.7967 19.0196C34.545 18.9605 33.2777 18.9297 32 18.9297C30.7344 18.9297 29.4765 18.9598 28.2325 19.0179C29.4759 17.3783 30.7497 15.8549 32.0305 14.473ZM20.7005 25.4572C20.0679 26.5541 19.4653 27.6594 18.8938 28.7666C18.0977 26.8784 17.4165 25.0217 16.8601 23.2288C18.6862 22.8202 20.6334 22.4861 22.6624 22.2328C21.9903 23.2812 21.3348 24.3571 20.7005 25.457V25.4572ZM22.7208 41.7952C20.6245 41.5614 18.648 41.2444 16.8224 40.8471C17.3877 39.0222 18.0839 37.1258 18.8969 35.1969C19.4698 36.3034 20.0748 37.4091 20.7113 38.5084H20.7114C21.3597 39.6284 22.0314 40.7254 22.7208 41.7952ZM32.1062 49.5528C30.8103 48.1547 29.5178 46.6081 28.2555 44.9445C29.4809 44.9926 30.7303 45.0172 32 45.0172C33.3045 45.0172 34.5941 44.9878 35.8633 44.9313C34.6171 46.6248 33.3587 48.1738 32.1062 49.5528ZM45.1557 35.0986C46.0111 37.0483 46.7323 38.9348 47.3048 40.7286C45.4492 41.1519 43.4457 41.4929 41.3348 41.7463C41.9991 40.6934 42.655 39.6071 43.2994 38.4896C43.9514 37.3591 44.5704 36.2269 45.1557 35.0986ZM40.9311 37.1238C39.9307 38.8584 38.9036 40.5143 37.8609 42.0774C35.9618 42.2132 33.9997 42.2832 32 42.2832C30.0084 42.2832 28.071 42.2213 26.2055 42.1002C25.1208 40.5166 24.0713 38.8558 23.0773 37.1387H23.0775C22.0861 35.4262 21.1736 33.6993 20.3468 31.9821C21.1734 30.2609 22.0835 28.5321 23.0692 26.8227L23.069 26.8231C24.0573 25.1092 25.0975 23.4564 26.1722 21.8827C28.0756 21.7389 30.0274 21.6638 31.9999 21.6638H32C33.9814 21.6638 35.9357 21.7394 37.8385 21.8846C38.8968 23.4467 39.9299 25.0941 40.9221 26.8083C41.9257 28.5417 42.8475 30.259 43.6812 31.9433C42.85 33.6565 41.9302 35.3912 40.9311 37.1238ZM46.5712 6.59274C48.7143 7.82865 49.5478 12.8131 48.2012 19.3492C48.1153 19.7662 48.0186 20.191 47.9136 20.6215C45.2584 20.0089 42.3751 19.553 39.3563 19.2698C37.5978 16.7655 35.7754 14.4888 33.9462 12.5178C34.438 12.0447 34.9291 11.5936 35.4181 11.1678C40.1431 7.05594 44.5591 5.43248 46.5712 6.59274ZM32 26.2015C35.1562 26.2015 37.715 28.7602 37.715 31.9165C37.715 35.0728 35.1562 37.6315 32 37.6315C28.8438 37.6315 26.285 35.0728 26.285 31.9165C26.285 28.7602 28.8438 26.2015 32 26.2015Z" fill="#7B4AE2" fill-opacity="0.5"/>
</svg>
