<svg width="400" height="400" viewBox="0 0 400 400" fill="none" xmlns="http://www.w3.org/2000/svg">
<path d="M151.968 198.472C146.64 198.472 142.307 200.049 138.985 203.203C135.663 206.359 133.978 210.496 133.978 215.565C133.978 218.192 134.396 220.587 135.221 222.781C136.046 224.981 137.329 227.018 139.054 228.859C140.779 230.701 144.232 233.204 149.378 236.386C155.693 240.242 159.826 243.37 161.809 245.813C163.794 248.254 164.779 250.812 164.779 253.479C164.779 257.05 163.604 259.9 161.188 262.042C158.768 264.186 155.532 265.254 151.519 265.254C147.287 265.254 143.601 263.762 140.435 260.799C137.269 257.833 135.671 253.908 135.635 248.99H133.667V266.842H135.635C136.236 265.152 137.068 264.287 138.156 264.287C138.68 264.287 139.906 264.648 141.816 265.323C146.464 266.977 150.28 267.775 153.28 267.775C158.45 267.775 162.863 265.964 166.54 262.284C170.211 258.606 172.065 254.17 172.065 248.99C172.065 244.974 170.841 241.4 168.439 238.286C166.037 235.167 161.366 231.54 154.385 227.374C148.378 223.765 144.479 220.826 142.68 218.534C140.877 216.246 139.952 213.715 139.952 210.938C139.952 207.933 141.055 205.52 143.232 203.721C145.409 201.92 148.261 201.027 151.83 201.027C155.847 201.027 159.195 202.219 161.844 204.618C164.49 207.022 166.021 210.352 166.471 214.632H168.439V199.163H166.609C166.385 199.951 166.178 200.455 165.988 200.682C165.802 200.907 165.446 201.027 164.917 201.027C164.28 201.027 163.145 200.759 161.533 200.233C158.08 199.07 154.896 198.472 151.968 198.472ZM216.298 198.472C209.805 198.472 203.91 200.002 198.584 203.065C193.25 206.121 189.028 210.366 185.912 215.772C182.797 221.177 181.25 226.919 181.25 233.037C181.25 241.257 183.941 248.58 189.365 254.998C194.791 261.413 201.294 265.41 208.84 266.946C210.565 267.845 213.033 270.165 216.264 273.921C219.905 278.159 222.985 281.217 225.518 283.037C228.048 284.858 230.78 286.193 233.667 287.077C236.557 287.957 239.681 288.389 243.059 288.389C247.151 288.389 250.814 287.678 254.04 286.214L253.315 284.418C251.442 285.094 249.445 285.42 247.341 285.42C244.486 285.42 241.601 284.478 238.709 282.588C235.82 280.693 232.209 277.078 227.901 271.746C225.876 269.19 224.478 267.578 223.688 266.946C231.943 265.334 238.732 261.333 244.026 254.929C249.319 248.529 251.968 241.224 251.968 233.037C251.968 223.316 248.51 215.146 241.644 208.486C234.772 201.825 226.322 198.472 216.298 198.472ZM256.457 198.472L256.561 200.578C260.884 200.578 263.305 201.852 263.847 204.411C264.048 205.327 264.141 207.018 264.157 209.453L264.123 256.034C264.087 259.513 263.591 261.734 262.638 262.699C261.684 263.656 260.07 264.255 257.735 264.494L257.631 266.6H300.725L301.83 256.034H299.862C299.3 258.913 298.011 260.975 295.96 262.146C293.903 263.326 290.267 263.907 285.014 263.907H280.939C276.213 263.907 273.478 262.198 272.756 258.762C272.606 258.082 272.555 257.353 272.548 256.552L272.721 209.453C272.72 205.979 273.159 203.652 274.068 202.512C274.986 201.377 276.642 200.741 279.04 200.578L278.937 198.472H256.457ZM216.989 201.027C224.312 201.027 230.291 203.912 234.91 209.729C239.528 215.548 241.816 223.524 241.816 233.624C241.816 243.194 239.494 250.857 234.841 256.621C230.188 262.383 223.994 265.254 216.298 265.254C208.905 265.254 202.909 262.294 198.308 256.345C193.711 250.396 191.436 242.673 191.436 233.175C191.436 223.415 193.739 215.603 198.377 209.763C203.012 203.93 209.22 201.027 216.989 201.027ZM316.091 211.041C315.04 211.041 314.239 211.396 313.64 212.112C313.026 212.824 312.838 213.688 313.053 214.736C313.26 215.753 313.833 216.644 314.744 217.395C315.651 218.145 316.628 218.534 317.68 218.534C318.696 218.534 319.471 218.145 320.028 217.395C320.584 216.644 320.754 215.753 320.546 214.736C320.332 213.688 319.778 212.824 318.923 212.112C318.058 211.396 317.108 211.041 316.091 211.041ZM344.51 218.189C342.724 225.059 338.852 228.777 332.907 229.377L332.977 231.345H339.917L339.779 254.618C339.79 258.597 339.912 261.247 340.193 262.595C340.877 265.823 342.985 267.464 346.512 267.464C351.616 267.464 356.97 264.355 362.569 258.141L360.877 256.69C356.834 260.783 353.26 262.837 350.138 262.837C348.22 262.837 347.03 261.733 346.582 259.556C346.459 259.028 346.409 258.41 346.409 257.692L346.478 231.345H357.079L356.975 228.203H346.513V218.189H344.51ZM385.497 226.96C379.568 226.96 374.744 229.838 370.994 235.558C367.264 241.287 366.109 247.635 367.576 254.618C368.439 258.709 370.159 261.88 372.79 264.114C375.417 266.348 378.75 267.464 382.735 267.464C386.445 267.464 391.611 266.524 393.785 264.632C395.964 262.741 397.972 259.678 399.827 255.482L398.343 253.928C395.384 259.371 389.413 262.112 384.91 262.112C378.72 262.112 374.928 258.715 373.515 251.96C373.332 251.097 373.195 250.171 373.101 249.197C380.466 248.031 386.047 245.966 389.814 242.982C393.577 239.995 397.356 236.83 396.651 233.486C396.231 231.499 395.199 229.936 393.612 228.755C392.004 227.575 387.83 226.96 385.497 226.96ZM320.684 227.201L307.907 230.136V232.415L312.327 231.863C314.468 231.863 315.728 232.832 316.126 234.763C316.26 235.41 316.344 236.317 316.367 237.457L316.229 258.348C316.193 261.239 315.873 262.919 315.228 263.424C314.577 263.929 312.862 264.183 310.083 264.183L310.014 266.152H330.283L330.249 264.183C327.432 264.183 325.606 263.961 324.793 263.527C323.993 263.096 323.442 262.312 323.204 261.11C323.021 260.244 322.941 258.752 322.928 256.69L322.997 227.201H320.684ZM382.251 231.069C383.485 231.069 384.677 231.545 385.877 232.484C387.061 233.421 387.782 234.461 388.018 235.592C389.174 241.146 384.25 244.986 373.17 247.125C372.854 243.075 373.555 239.399 375.345 236.076C377.122 232.755 379.435 231.069 382.251 231.069Z" fill="#7B4AE2" fill-opacity="0.5"/>
<path d="M123.35 118.712H13.3983C6.02928 118.712 0 124.743 0 132.112V253.367C0 260.736 6.02928 266.765 13.3983 266.765H85.8152C84.9932 230.733 97.2978 160.805 123.35 118.712Z" fill="#7B4AE2" fill-opacity="0.5"/>
<path d="M119.355 122.621H13.3983C8.16588 122.621 3.90787 126.878 3.90787 132.112V244.521C27.9048 235.311 63.9214 227.364 88.8245 227.725C93.8289 201.558 108.537 150.277 119.355 122.621Z" fill="#7B4AE2" fill-opacity="0.5"/>
<path d="M148.996 114.744C141.466 108.029 132.348 110.726 123.35 118.712C122.014 119.899 120.681 121.215 119.355 122.621C103.962 138.951 89.6729 169.2 85.2337 192.301C86.963 195.808 88.3138 200.283 89.2033 203.701C89.4312 204.578 89.637 205.402 89.8014 206.102C90.1923 207.759 90.4022 208.834 90.4022 208.834C90.4022 208.834 90.2641 208.312 89.6978 206.67C89.59 206.355 89.4699 206.011 89.3276 205.606C89.2668 205.439 89.1826 205.236 89.09 205.019C88.0859 202.685 85.3083 197.758 84.0859 195.613C83.0403 198.697 82.1163 201.583 81.3428 204.193C84.8718 210.65 87.0224 221.715 87.0224 221.715C87.0224 221.715 86.8359 220.998 85.9492 218.495C85.1619 216.282 81.2406 209.411 80.3117 207.805C78.7228 213.671 78.0914 217.631 78.6608 218.595C79.7661 220.464 80.8189 223.687 81.7434 227.253C83.8318 235.284 85.2834 245.062 85.2834 245.062C85.2834 245.062 85.3304 245.71 85.4091 246.707C85.119 253.451 85.2931 260.444 85.8152 266.765C86.5072 275.132 87.8097 282.32 89.4699 286.167L90.5969 285.552C88.1591 277.973 87.1688 268.041 87.6025 256.587C88.2585 239.078 92.2876 217.964 99.7323 195.957C112.31 162.736 129.76 136.081 145.731 123.352C131.174 136.498 111.473 179.052 105.575 194.81C98.9713 212.457 94.2917 229.016 91.4713 244.882C96.3373 230.008 112.071 223.615 112.071 223.615C112.071 223.615 119.788 214.098 128.806 200.501C123.404 201.733 114.533 203.842 111.562 205.091C107.18 206.929 105.999 207.556 105.999 207.556C105.999 207.556 120.195 198.911 132.375 194.997C149.125 168.616 167.373 131.138 148.996 114.744Z" fill="#7B4AE2" fill-opacity="0.5"/>
</svg>
