<svg width="57" height="64" viewBox="0 0 57 64" fill="none" xmlns="http://www.w3.org/2000/svg">
<path fill-rule="evenodd" clip-rule="evenodd" d="M0 -0.000488281L5.1358 57.6016L28.183 63.9995L51.293 57.5921L56.4343 -0.000488281H0ZM46.9154 53.968L28.2645 59.0989L28.2645 51.7673L28.2084 51.7806L13.7123 47.7669L12.7225 36.6818H19.8148L20.3296 42.3085L28.2099 44.4248L28.2645 44.4166V33.0136L12.3745 33.0136L11.7558 25.9593V25.9593L28.2645 18.8936L28.2646 18.4055H11.1276L10.5016 11.3513H28.1929H28.2646L28.2645 4.79657H51.2852L46.9154 53.968Z" fill="#7B4AE2" fill-opacity="0.5"/>
<path fill-rule="evenodd" clip-rule="evenodd" d="M29.4032 18.4054L28.2645 18.8934V25.959H28.2645V33.0133H36.8922L36.108 42.2362L28.2645 44.4225V51.7726L42.7125 47.7589L44.6151 25.959H28.2646L45.2565 18.4054L45.8633 11.3511H28.2645V18.3169V18.4054H29.4032Z" fill="#7B4AE2" fill-opacity="0.5"/>
</svg>
