<svg width="556" height="560" viewBox="0 0 556 560" fill="none" xmlns="http://www.w3.org/2000/svg">
<path d="M471.9 471.225C471.675 471.575 471.275 471.625 470.925 471.725C469.525 473.475 467.375 473.95 465.475 474.775C445.075 483.725 424.725 492.825 404.375 501.875C402.675 502.625 401.15 502.4 399.5 501.85C388.975 498.3 378.55 494.525 368.075 490.825C355.3 486.3 342.55 481.8 329.775 477.3C304.15 468.275 278.525 459.25 252.925 450.175C237.55 444.725 222.125 439.35 206.75 433.925C183.925 425.85 161.025 417.9 138.225 409.725C134.6 408.425 130.75 407.675 127.475 405.525C127.3 405.375 127.125 405.2 126.95 405.05C126.2 404 125.925 402.75 125.675 401.525C124.375 395.325 123.65 389.1 123.575 382.75C122.475 298.25 123.45 213.775 123.1 129.275C123.1 127.9 123.325 126.6 123.55 125.275C123.55 125 123.7 124.85 123.925 124.75C124.125 124.575 124.35 124.55 124.575 124.65C125.875 125.325 126.75 126.5 127.75 127.5C241.175 240.925 354.6 354.35 468.025 467.75C469.1 468.825 470.075 470 471.45 470.725C471.65 470.875 471.8 471.05 471.925 471.25L471.9 471.225ZM472 468.95C471.45 469.025 471.025 468.825 470.65 468.45C470.125 467.9 469.575 467.375 469.05 466.85C355.175 352.975 241.325 239.125 127.45 125.25C126.625 124.425 125.675 123.675 125.05 122.65C125.875 121.975 126.85 121.8 127.875 121.775C128.8 121.75 129.725 121.75 130.65 121.75C213.325 121.75 295.975 121.725 378.65 121.775C386.05 121.775 393.425 122.275 400.7 123.875C402.175 124.2 403.675 124.5 404.85 125.55C405.025 125.675 405.2 125.825 405.4 125.95C407.55 129.425 408.425 133.425 409.775 137.2C420.6 168 431.55 198.75 442.325 229.55C449.275 249.4 456.325 269.225 463.325 289.05C474.675 321.175 486.05 353.3 497.325 385.45C498.775 389.575 500.1 393.75 501.75 397.8C502.55 399.8 502.3 401.625 501.425 403.625C493.8 420.575 486.325 437.6 478.8 454.6C477.025 458.6 475.275 462.625 473.45 466.6C473.075 467.425 472.725 468.325 472 468.95ZM118.65 408.65C120.375 408.7 121.825 409.6 123.375 410.15C130.725 412.725 138.1 415.275 145.45 417.85C160.475 423.15 175.5 428.475 190.55 433.775C203.85 438.45 217.175 443.075 230.475 447.75C239.325 450.85 248.15 454.025 256.975 457.125C272.575 462.625 288.2 468.1 303.825 473.6C312.325 476.6 320.825 479.625 329.325 482.625C345.175 488.225 361.05 493.775 376.925 499.375C385.675 502.45 394.425 505.55 403.175 508.725C404.775 509.3 406.1 509.2 407.675 508.475C414.675 505.275 421.775 502.25 428.825 499.125C434.125 496.8 439.375 494.4 444.675 492.05C453.25 488.25 461.825 484.5 470.4 480.725C472.65 479.725 474.9 478.75 477.125 477.775C472.9 490.875 468.675 503.975 464.45 517.075C461.9 525 459.375 532.95 456.85 540.875C455.15 546.225 453.425 551.575 451.75 556.925C451 559.325 451 559.375 448.475 559.375C437.15 559.375 425.825 559.35 414.5 559.35C382.525 559.325 350.575 559.575 318.625 559.225C294.05 558.95 269.475 559.15 244.9 559C243.375 559 242.25 558.575 241.2 557.475C239.525 555.675 237.725 554 235.975 552.25C210.075 526.5 184.175 500.75 158.275 475C155.35 472.1 152.45 469.15 149.5 466.275C142.375 459.35 136.975 451.15 132.225 442.525C126.475 432.025 121.9 421.025 118.775 409.45C118.7 409.2 118.7 408.925 118.675 408.675L118.65 408.65ZM477.575 477.125C477.925 474.45 479.525 472.275 480.525 469.875C483 463.9 485.7 458 488.325 452.075C490.6 446.95 492.9 441.85 495.175 436.725C498.325 429.6 501.45 422.475 504.6 415.35C505.675 412.95 506.725 410.55 507.9 408.2C508.625 406.775 508.825 405.5 508.25 403.925C504.575 393.725 500.925 383.5 497.325 373.25C495.45 367.975 493.675 362.65 491.825 357.375C487.4 344.725 482.975 332.1 478.525 319.475C475.525 310.975 472.5 302.475 469.5 293.975C465.125 281.6 460.775 269.2 456.425 256.825C453.45 248.4 450.45 240 447.475 231.575C442.875 218.525 438.325 205.475 433.725 192.425C430.725 183.925 427.7 175.425 424.7 166.925C420.325 154.55 416.025 142.15 411.6 129.8C410.325 126.25 408.925 122.775 408.075 119.1C413.425 120.175 418.525 122.05 423.6 124.025C436.325 129.025 448.3 135.4 459.025 143.95C463.9 147.85 468.15 152.45 472.55 156.85C478.95 163.225 485.275 169.7 491.675 176.1C512.2 196.675 532.7 217.275 553.25 237.825C554.525 239.1 555.075 240.375 555.05 242.175C555 287.825 555 333.5 554.975 379.15C554.975 402.675 554.925 426.225 554.9 449.75C554.9 450.025 554.9 450.275 554.9 450.55C554.875 452.675 555.3 452.675 552.8 453.475C548.8 454.75 544.775 456.025 540.775 457.3C520.475 463.775 500.175 470.275 479.9 476.75C479.325 476.925 478.725 477.05 478.125 477.2C477.925 477.15 477.75 477.125 477.55 477.075L477.575 477.125ZM409.075 120.25C405.975 119.675 402.9 119.075 399.8 118.525C397.125 118.05 394.45 117.75 391.725 117.6C374 116.625 356.275 117.15 338.55 117.125C265.75 117.075 192.975 117.1 120.175 117.125C119.125 117.125 118.075 117.175 117.025 117.225C116.85 117.2 116.675 117.175 116.5 117.125C121.075 113.725 125.925 110.725 130.675 107.575C142.95 99.4 155.275 91.3 167.575 83.15C193.2 66.2 218.8 49.2 244.425 32.25C257.525 23.575 270.675 14.975 283.75 6.25C286.075 4.7 288.175 2.825 290.925 1.925C296.575 0.0249953 302.175 0.525003 307.75 2.15C315.5 4.375 322.2 8.45 328.15 13.825C330.35 15.825 332.425 18 334.55 20.1C354 39.4 373.45 58.725 392.925 78C394.4 79.45 395.425 81.025 396.1 83C400.275 95.1 404.6 107.175 408.85 119.25C408.975 119.575 409.025 119.925 409.1 120.275L409.075 120.25ZM116.1 117.7C116.825 118.75 116.475 119.925 116.475 121.025C116.5 206.35 116.5 291.675 116.5 377C116.5 382.35 116.975 387.675 117.15 393C117.3 397.775 118.3 402.525 119.425 407.175C119.625 407.975 120.1 408.8 119.65 409.675C113.35 407.5 107.05 405.35 100.75 403.15C94.375 400.925 88.025 398.65 81.625 396.45C80.175 395.95 79 395.175 77.925 394.075C56.85 372.775 35.725 351.55 14.675 330.25C7.75003 323.25 2.85003 315.025 0.775028 305.275C-0.124972 301 -0.224964 296.75 1.00004 292.5C1.52504 290.625 2.30003 288.85 3.42503 287.275C11 276.7 17.925 265.7 25.1 254.9C52.925 212.975 80.65 171 108.425 129.05C110.95 125.25 113.5 121.475 116.05 117.675L116.1 117.7Z" fill="#7B4AE2" fill-opacity="0.5"/>
</svg>
