<svg width="64" height="64" viewBox="0 0 64 64" fill="none" xmlns="http://www.w3.org/2000/svg">
<g clip-path="url(#clip0_21_3147)">
<path d="M31.9316 62.9617L9.82022 56.8235L4.84312 0.999512H59.0887L54.1064 56.8142L31.9316 62.9617Z" stroke="#7B4AE2" stroke-opacity="0.5" stroke-width="2"/>
<path fill-rule="evenodd" clip-rule="evenodd" d="M46.4246 47.7627L46.5308 46.5691L48.191 27.9701L48.3633 26.073H22.6176L21.9719 18.8387H31.9538H48.9834L49.1479 17.2508L49.4698 13.6693L49.6387 11.7739H31.9538H14.2511L14.4202 13.6693L16.1566 33.1376H31.966H40.6409L39.8209 42.3L31.9647 44.4205L24.067 42.3045L23.5641 36.6701H19.7408H16.4722L17.462 47.7627L31.9335 51.7801L46.4246 47.7627Z" fill="#7B4AE2" fill-opacity="0.5"/>
</g>
<defs>
<clipPath id="clip0_21_3147">
<rect width="64" height="64" fill="white" transform="translate(0 -0.000488281)"/>
</clipPath>
</defs>
</svg>
