<svg width="64" height="64" viewBox="0 0 64 64" fill="none" xmlns="http://www.w3.org/2000/svg">
<g clip-path="url(#clip0_21_3161)">
<path fill-rule="evenodd" clip-rule="evenodd" d="M0.75 8.74951C0.75 4.33123 4.33172 0.749512 8.75 0.749512H55.25C59.6683 0.749512 63.25 4.33124 63.25 8.74951V55.2495C63.25 59.6678 59.6683 63.2495 55.25 63.2495H8.75C4.33172 63.2495 0.75 59.6678 0.75 55.2495V8.74951ZM17.1835 52.979C17.1835 52.979 17.1836 52.9791 17.1836 52.979L17.1836 52.979C18.5681 55.9154 21.2955 58.3486 25.9937 58.3486C31.1962 58.3486 34.7621 55.5797 34.7621 49.4963V32.3798C34.7621 30.7579 33.4473 29.4431 31.8254 29.4431C30.2035 29.4431 28.8887 30.7579 28.8887 32.3798V49.4133C28.8887 52.3498 27.6719 53.1048 25.742 53.1048C22.9352 53.1048 19.9798 51.2868 17.5785 52.74L17.1836 52.979L17.1836 52.979C17.1836 52.9789 17.1835 52.9789 17.1835 52.979ZM44.5055 51.7436C43.3176 50.7305 41.6567 50.2049 40.3056 50.9872C38.9851 51.7518 38.4617 53.452 39.471 54.5963C41.4409 56.8298 44.4821 58.3491 48.6505 58.3491C54.2303 58.3491 58.3836 55.4546 58.3836 50.1681C58.3836 45.2596 55.5726 43.0783 50.5801 40.9385L49.1118 40.3092C46.5948 39.2184 45.504 38.505 45.504 36.7429C45.504 35.3167 46.5948 34.2259 48.315 34.2259C49.0314 34.2259 49.6407 34.3559 50.1822 34.6452C51.5566 35.3797 53.1984 36.0314 54.5097 35.1894C55.7177 34.4136 56.1479 32.784 55.1649 31.7378C53.4061 29.8658 51.1663 29.1073 48.3149 29.1073C43.0704 29.1073 39.7142 32.4637 39.7142 36.8689C39.7142 41.6517 42.5252 43.9172 46.7628 45.7208L48.2308 46.3506C50.9159 47.5249 52.51 48.2382 52.51 50.252C52.51 51.9302 50.9581 53.1469 48.5245 53.1469C46.8005 53.1469 45.5229 52.6112 44.5055 51.7436Z" fill="#7B4AE2" fill-opacity="0.5"/>
</g>
<defs>
<clipPath id="clip0_21_3161">
<rect y="-0.000488281" width="64" height="64" rx="8" fill="white"/>
</clipPath>
</defs>
</svg>
