<svg width="66" height="64" viewBox="0 0 66 64" fill="none" xmlns="http://www.w3.org/2000/svg">
<path d="M51.4517 50.7408C53.7576 49.7655 56.5069 49.4105 60.0544 49.499C59.9546 48.8353 58.6869 48.0469 57.7582 47.4694C57.4465 47.2755 57.1729 47.1054 56.9946 46.9717C55.5756 45.9518 54.0678 44.8872 52.5603 43.9564C52.0746 43.6597 51.3754 43.412 50.7025 43.1738C50.2697 43.0205 49.8477 42.871 49.5005 42.7149C49.1458 42.5703 48.6626 42.4257 48.141 42.2696C46.9019 41.8989 45.4457 41.4632 44.9775 40.8082C43.7717 39.2406 42.9303 37.3451 42.09 35.4523C42.0032 35.2567 41.9164 35.0612 41.8292 34.8661C41.3894 33.8606 40.9001 32.8354 40.408 31.8043C39.8584 30.6528 39.3054 29.494 38.8139 28.3476C38.5998 27.8806 38.437 27.4391 38.2767 27.0045C38.0718 26.4489 37.871 25.9044 37.5724 25.3323C34.3351 19.08 29.5464 13.8473 23.7373 10.1669C21.8303 8.96961 19.7022 7.86076 17.3518 7.10715C16.634 6.89192 15.8389 6.85727 15.0359 6.82228C14.3506 6.79242 13.6596 6.76231 13.0062 6.61949H12.0749C11.5372 6.47013 11.0599 6.039 10.6159 5.63795C10.4008 5.44366 10.1935 5.25643 9.99095 5.11171C8.61615 4.18062 7.24163 3.55942 5.60088 2.89456C5.02449 2.62861 3.38374 2.0077 2.80733 2.49564C2.45236 2.58438 2.27516 2.71736 2.18642 3.07204C1.83173 3.60422 2.14247 4.40233 2.3639 4.89C2.80343 5.82769 3.35921 6.51369 3.92872 7.21666C4.22108 7.57751 4.51705 7.94284 4.80278 8.34898C4.93925 8.5416 5.08153 8.73858 5.2262 8.93887C5.8807 9.845 6.5841 10.8188 7.01993 11.7632C7.63494 13.088 8.07331 14.4886 8.51008 15.884C8.89201 17.1043 9.27272 18.3206 9.76925 19.479C10.1682 20.4103 10.7891 21.4744 11.3655 22.317C11.5463 22.5636 11.7819 22.7858 12.0205 23.0107C12.4255 23.3925 12.8389 23.7822 13.0062 24.3125C13.4375 25.0311 12.6458 27.0891 12.1647 28.3395C12.0521 28.6322 11.9565 28.8806 11.8977 29.0572C10.7446 32.6931 10.9663 37.7484 12.2966 40.8966C12.3441 41.0076 12.3913 41.1203 12.4389 41.2338C12.9234 42.391 13.4435 43.6331 14.7355 43.9564C14.7756 43.9162 14.7795 43.9033 14.7881 43.8972C14.7986 43.8897 14.816 43.892 14.9129 43.8676C14.9778 43.3579 15.033 42.8521 15.0875 42.3534C15.2935 40.4658 15.4884 38.6802 16.1545 37.172C16.4719 36.3932 16.9954 35.7645 17.5057 35.1517C17.78 34.8224 18.0504 34.4976 18.2829 34.1567C18.5643 34.3255 18.6671 34.7085 18.7728 35.1019C18.8336 35.3284 18.8953 35.5584 18.9926 35.7529C19.0344 35.8528 19.0765 35.9533 19.1189 36.0544C19.6596 37.3458 20.2414 38.7351 20.8993 40.0098C22.3625 42.8478 24.0035 45.5968 25.8657 48.0802C26.4864 48.9671 27.3735 49.9427 28.1716 50.7408C28.293 50.8471 28.4195 50.9377 28.5442 51.027C28.7838 51.1986 29.0163 51.3651 29.1915 51.6277H29.2802V51.7609C28.4383 51.4521 27.7919 50.7882 27.1608 50.14C26.7947 49.764 26.4338 49.3933 26.0429 49.1003C24.0475 47.5926 21.6531 45.3309 20.2783 43.1583C19.8453 42.2256 19.3874 41.3179 18.9231 40.3977C18.7693 40.0929 18.6149 39.7867 18.4604 39.4779C18.4604 39.4779 18.4606 39.4333 18.4604 39.3891C18.2909 39.6151 18.2655 39.841 18.2348 40.1129C18.2174 40.2677 18.1983 40.4375 18.1499 40.6307C17.9856 41.2629 17.9041 41.9203 17.8254 42.5557C17.6281 44.1487 17.448 45.603 16.0215 46.1736C13.7601 47.1049 12.0749 44.6655 11.3655 43.5572C9.10411 39.8768 8.4832 33.6688 10.0794 28.6581C10.2029 28.2724 10.2888 27.8599 10.3745 27.4485C10.5351 26.6775 10.6948 25.9106 11.0995 25.3323C11.0106 24.7994 10.7043 24.5234 10.405 24.2536C10.2561 24.1193 10.1088 23.9866 9.99097 23.8245C9.37006 22.9822 8.83817 22.0066 8.35022 21.0755C7.64123 19.6914 7.08667 18.1016 6.54922 16.5608C6.38065 16.0776 6.21377 15.5992 6.04433 15.1334C5.89297 14.7443 5.79437 14.355 5.69709 13.971C5.59485 13.5673 5.49405 13.1693 5.33495 12.7833C4.91577 11.875 4.22165 10.9669 3.57722 10.1239C3.40351 9.89662 3.23342 9.67408 3.07329 9.45755C2.90055 9.20965 2.67182 8.92231 2.41685 8.60202C1.16656 7.03138 -0.714766 4.66802 0.279744 2.27393C2.1422 -2.29335 8.66098 1.16507 11.188 2.76159C11.4407 2.92406 11.7081 3.15994 11.9842 3.40348C12.3865 3.75834 12.8073 4.12949 13.228 4.3136C13.7824 4.33586 14.3368 4.36911 14.8913 4.40236C15.4455 4.4356 15.9997 4.46883 16.5537 4.49108C16.7352 4.53356 16.9158 4.57537 17.0952 4.61691C18.9754 5.05232 20.7317 5.45904 22.2296 6.30903C29.8566 10.7878 34.8231 15.3551 39.3904 22.8934C40.0104 23.9079 40.4335 24.9763 40.8643 26.0642C41.1114 26.6881 41.361 27.3184 41.6517 27.9487C42.7603 30.5205 44.0024 33.225 45.2879 35.6642C45.4496 35.9875 45.6007 36.3213 45.7522 36.6557C46.1409 37.514 46.5316 38.3766 47.1062 39.0787C47.3126 39.3738 47.7747 39.5313 48.2175 39.6822C48.4399 39.758 48.6575 39.8322 48.8354 39.9213C49.4089 40.2167 50.0301 40.4849 50.6563 40.7552C51.6278 41.1746 52.6112 41.5992 53.4472 42.1384C56.019 43.7347 58.5024 45.6411 60.7638 47.5926C61.2209 48.0016 61.5998 48.5019 61.9781 49.0015C62.2972 49.4228 62.6159 49.8437 62.9809 50.2089V50.6079C62.2715 50.8296 61.5619 51.0513 60.8525 51.2288C60.0806 51.4272 59.3526 51.505 58.6303 51.5821C57.9003 51.6601 57.1761 51.7375 56.4182 51.9381C56.3226 51.9655 56.2248 51.9937 56.125 52.0225C55.2521 52.2744 54.2339 52.5682 53.3584 52.6478C53.4026 52.692 53.4472 52.7363 53.4472 52.7363C53.8746 53.9529 55.6919 54.9988 57.1813 55.856C57.7005 56.1548 58.1799 56.4307 58.5466 56.6829C60.2761 57.9245 61.8723 59.4322 63.1584 61.1614C63.3795 61.3825 63.6006 61.5926 63.8217 61.8026C64.0441 62.0139 64.2665 62.2251 64.4887 62.4475C64.6389 62.6622 64.7371 62.9081 64.8338 63.1499C64.9368 63.4075 65.0379 63.6606 65.1981 63.8665V63.9995C64.8101 63.861 64.5434 63.5838 64.2789 63.309C64.1201 63.1439 63.9621 62.9797 63.779 62.8467C63.3614 62.562 62.9438 62.2527 62.5263 61.9435C61.9684 61.5304 61.4106 61.1173 60.8525 60.7625C59.9945 60.2205 59.0674 59.7936 58.1358 59.3646C57.2378 58.9511 56.3356 58.5356 55.4868 58.0132C54.5115 57.3923 53.5801 56.6829 52.649 55.9735C51.8064 55.3526 50.8756 54.155 50.3431 53.2684C50.2089 53.0577 50.1245 52.8303 50.0432 52.6114C49.9364 52.3239 49.835 52.0509 49.6335 51.8494C49.6998 51.2195 50.3118 51.0605 50.8944 50.9091C51.0909 50.8581 51.284 50.8079 51.4517 50.7408Z" fill="#7B4AE2" fill-opacity="0.5"/>
<path d="M13.006 11.1868C13.5382 11.0538 14.0701 10.9648 14.824 10.9648C14.9645 11.1054 15.1399 11.2251 15.317 11.346C15.5869 11.5301 15.8607 11.717 16.0213 11.9849C16.1198 12.1228 16.1833 12.2607 16.2467 12.3987C16.3261 12.5712 16.4055 12.7437 16.5535 12.9163C16.5535 13.9803 16.2433 14.6897 15.6221 15.1334C15.6221 15.1334 15.5779 15.1776 15.5336 15.2221C15.3564 14.8678 15.1904 14.5135 15.0243 14.1593C14.8578 13.8039 14.6913 13.4487 14.5135 13.0935C14.3409 12.8518 14.1414 12.6302 13.9411 12.4079C13.6272 12.0592 13.3115 11.7087 13.0948 11.2755H13.006V11.1868Z" fill="#7B4AE2" fill-opacity="0.5"/>
</svg>
